<?xml version="1.0" encoding="UTF-8"?><svg id="Layer_2" xmlns="http://www.w3.org/2000/svg" xmlns:xlink="http://www.w3.org/1999/xlink" viewBox="0 0 81.03 81.03"><defs><clipPath id="clippath"><circle cx="40.52" cy="40.52" r="40.52" fill="none"/></clipPath></defs><g id="Layer_2-2"><g clip-path="url(#clippath)"><g id="LEaves"><g><path d="m48.62,53.16s6.88,2.3,5.91,10.52c0,0-7.59-3.15-5.91-10.52Z" fill="#90b9a6"/><path d="m63.87,37.38s1.4,6.53-5.57,9.62c0,0-1.06-7.5,5.57-9.62Z" fill="#90b9a6"/><path d="m45.55,30.95s6.06,3.24,3.85,10.76c0,0-6.59-4.14-3.85-10.76Z" fill="#90b9a6"/><path d="m35.42,31.36s-5.96,3.19-3.79,10.59c0,0,6.48-4.08,3.79-10.59Z" fill="#90b9a6"/><path d="m53.19,21.25s7.16,1.14,7.56,9.4c0,0-8-1.86-7.56-9.4Z" fill="#90b9a6"/><path d="m27.42,20.99s-7.16,1.14-7.56,9.4c0,0,8-1.86,7.56-9.4Z" fill="#90b9a6"/><path d="m64.04,30.28s4.08-4.8,10.39-1.36c0,0-4.99,5.1-10.39,1.36Z" fill="#90b9a6"/><path d="m32.39,53.27s-6.88,2.3-5.91,10.52c0,0,7.59-3.15,5.91-10.52Z" fill="#90b9a6"/><path d="m16.96,37.38s-1.39,6.62,5.68,9.71c0,0,1.04-7.59-5.68-9.71Z" fill="#90b9a6"/><path d="m16.98,30.42s-4.08-4.8-10.38-1.36c0,0,4.99,5.09,10.38,1.36Z" fill="#90b9a6"/><path d="m.69,45.73s.24,5.2,6.11,6.15c0,0-.69-5.86-6.11-6.15Z" fill="#90b9a6"/><path d="m80.35,45.9s-5.22.24-6.17,6.13c0,0,5.88-.69,6.17-6.13Z" fill="#90b9a6"/></g></g><g id="Olives"><g><ellipse cx="62.88" cy="55.17" rx="2.87" ry="2.06" transform="translate(-16.34 82.04) rotate(-60)" fill="#b0ab84"/><ellipse cx="71.11" cy="37.63" rx="2.87" ry="2.06" transform="translate(2.97 80.4) rotate(-60)" fill="#b0ab84"/><ellipse cx="18.33" cy="55.14" rx="2.06" ry="2.87" transform="translate(-25.11 16.55) rotate(-30)" fill="#b0ab84"/><ellipse cx="23.13" cy="6.63" rx="2.95" ry="2.12" transform="translate(.3 14.22) rotate(-34.39)" fill="#b0ab84"/><ellipse cx="57.73" cy="6.63" rx="2.12" ry="2.94" transform="translate(19.65 50.52) rotate(-55.61)" fill="#b0ab84"/><ellipse cx="40.4" cy="23.92" rx="2.01" ry="2.8" fill="#b0ab84"/><ellipse cx="74.57" cy="23.16" rx="1.86" ry="2.58" transform="translate(.36 47.45) rotate(-35.38)" fill="#b0ab84"/><ellipse cx="40.36" cy="7.84" rx="2.69" ry="1.93" fill="#b0ab84"/><ellipse cx="9.74" cy="37.87" rx="2.06" ry="2.87" transform="translate(-17.63 9.94) rotate(-30)" fill="#b0ab84"/><ellipse cx="6.33" cy="22.85" rx="2.58" ry="1.86" transform="translate(-15.97 14.79) rotate(-54.62)" fill="#b0ab84"/></g></g><g id="Branches"><g><path d="m61.67,80.97c-11.56,0-20.93-9.37-20.93-20.93,0-4.29,1.29-8.28,3.5-11.6,3.75-5.63,25.81-17.32,25.56-39.15" fill="none" stroke="#548285" stroke-miterlimit="10" stroke-width="2.5"/><path d="m40.72,61.35c1.58-3.95,4.37-7.45,8.24-9.89,9.77-6.18,22.7-3.27,28.88,6.5" fill="none" stroke="#548285" stroke-miterlimit="10" stroke-width="2.5"/><path d="m81.91,33.58c-2.78,8.95-11.02,14.69-19.93,14.72" fill="none" stroke="#548285" stroke-miterlimit="10" stroke-width="2.5"/><path d="m19.23,80.97c11.56,0,20.93-9.37,20.93-20.93,0-4.29-1.29-8.28-3.5-11.6-3.75-5.63-25.81-17.32-25.56-39.15" fill="none" stroke="#548285" stroke-miterlimit="10" stroke-width="2.5"/><path d="m40.17,61.35c-1.58-3.95-4.37-7.45-8.24-9.89-9.77-6.18-22.7-3.27-28.88,6.5" fill="none" stroke="#548285" stroke-miterlimit="10" stroke-width="2.5"/><path d="m-1.02,33.58c2.78,8.95,11.02,14.69,19.93,14.72" fill="none" stroke="#548285" stroke-miterlimit="10" stroke-width="2.5"/><path d="m49.02,82.53c-5.14-3.81-8.47-9.93-8.47-16.82" fill="none" stroke="#548285" stroke-miterlimit="10" stroke-width="2.5"/><path d="m31.76,82.53c5.14-3.81,8.47-9.93,8.47-16.82" fill="none" stroke="#548285" stroke-miterlimit="10" stroke-width="2.5"/></g></g><path d="m42.95,16.01c2.21-2.88,5.69-4.74,9.6-4.74,6.68,0,12.09,5.41,12.09,12.09,0,1.49-.27,2.92-.76,4.24-.27.71-.59,1.39-.98,2.02-.04.07-.08.14-.13.21" fill="none" stroke="#548285" stroke-miterlimit="10" stroke-width="2.5"/><path d="m37.97,16.01c-2.21-2.88-5.69-4.74-9.6-4.74-6.68,0-12.09,5.41-12.09,12.09,0,2.37.68,4.57,1.85,6.44.16.26.33.5.51.75" fill="none" stroke="#548285" stroke-miterlimit="10" stroke-width="2.5"/></g></g></svg>