<?xml version="1.0" encoding="UTF-8"?><svg id="Layer_2" xmlns="http://www.w3.org/2000/svg" viewBox="0 0 332.04 83.7"><g id="Tree_3_Color_copy"><g id="LEaves"><g><path d="m49.03,54.86s6.88,2.3,5.91,10.52c0,0-7.59-3.15-5.91-10.52Z" fill="#90b9a6"/><path d="m65.32,38.3s1.52,7.09-6.05,10.44c0,0-1.15-8.13,6.05-10.44Z" fill="#90b9a6"/><path d="m64.5,15.77s1.86,7.01-5.53,10.72c0,0-1.54-8.07,5.53-10.72Z" fill="#90b9a6"/><path d="m38.95,23.15s-1.14,7.16-9.4,7.56c0,0,1.86-8,9.4-7.56Z" fill="#90b9a6"/><path d="m42.25,35.57s7.12,1.39,7.22,9.67c0,0-7.93-2.14-7.22-9.67Z" fill="#90b9a6"/><path d="m48.66,22.58s7.24.48,8.38,8.68c0,0-8.14-1.12-8.38-8.68Z" fill="#90b9a6"/><path d="m46.6,11.62s2.66,6.75-4.25,11.29c0,0-2.47-7.83,4.25-11.29Z" fill="#90b9a6"/><path d="m23.8,19.48s4.1,5.98-1.63,11.95c0,0-4.15-7.09,1.63-11.95Z" fill="#90b9a6"/><path d="m66.53,31.5s4.7-5.53,11.96-1.57c0,0-5.75,5.87-11.96,1.57Z" fill="#90b9a6"/><path d="m35.13,54.75s-6.88,2.3-5.91,10.52c0,0,7.59-3.15,5.91-10.52Z" fill="#90b9a6"/><path d="m19.05,38.4s-1.52,7.09,6.05,10.44c0,0,1.15-8.13-6.05-10.44Z" fill="#90b9a6"/><path d="m19.47,31.4s-4.7-5.53-11.96-1.57c0,0,5.75,5.87,11.96,1.57Z" fill="#90b9a6"/><path d="m0,45.58s.34,7.24,8.51,8.56c0,0-.96-8.16-8.51-8.56Z" fill="#90b9a6"/><path d="m85.66,45.33s-7.24.34-8.56,8.51c0,0,8.16-.96,8.56-8.51Z" fill="#90b9a6"/></g></g><g id="Olives"><g><ellipse cx="63" cy="56.66" rx="3.49" ry="2.51" transform="translate(-17.57 82.89) rotate(-60)" fill="#b0ab84"/><ellipse cx="73.1" cy="38.61" rx="3.49" ry="2.51" transform="translate(3.11 82.61) rotate(-60)" fill="#b0ab84"/><ellipse cx="20.82" cy="56.87" rx="2.51" ry="3.49" transform="translate(-25.65 18.03) rotate(-30)" fill="#b0ab84"/><ellipse cx="24.04" cy="8.84" rx="3.49" ry="2.51" transform="translate(7.29 28.22) rotate(-69.35)" fill="#b0ab84"/><ellipse cx="45.54" cy="30" rx="2.51" ry="3.49" transform="translate(-8.12 20.29) rotate(-23.11)" fill="#b0ab84"/><ellipse cx="78.32" cy="22.88" rx="2.29" ry="3.19" transform="translate(1.22 49.57) rotate(-35.38)" fill="#b0ab84"/><ellipse cx="64.72" cy="8.58" rx="2.29" ry="3.19" transform="translate(6.98 39.05) rotate(-35.38)" fill="#b0ab84"/><ellipse cx="43.45" cy="2.3" rx="3.19" ry="2.29" transform="translate(-.05 3.27) rotate(-4.31)" fill="#b0ab84"/><ellipse cx="11.98" cy="38.85" rx="2.51" ry="3.49" transform="translate(-17.82 11.19) rotate(-30)" fill="#b0ab84"/><ellipse cx="7.82" cy="22.07" rx="3.19" ry="2.29" transform="translate(-14.7 15.66) rotate(-54.62)" fill="#b0ab84"/></g></g><g id="Branches"><path d="m64.16,82.2c-11.56,0-20.93-9.37-20.93-20.93,0-4.29,1.29-8.28,3.5-11.6,3.75-5.63,25.81-17.32,25.56-39.15" fill="none" stroke="#898768" stroke-miterlimit="10" stroke-width="3"/><path d="m43.21,62.58c1.58-3.95,4.37-7.45,8.24-9.89,9.77-6.18,22.7-3.27,28.88,6.5" fill="none" stroke="#898768" stroke-miterlimit="10" stroke-width="3"/><path d="m51.75,44.73c8.34-8,8.62-21.25.61-29.6-3.17-3.3-7.16-5.34-11.34-6.1-3.2-.45-5.19-.47-7.9-.45" fill="none" stroke="#898768" stroke-miterlimit="10" stroke-width="3"/><path d="m84.4,34.81c-2.78,8.95-11.02,14.69-19.93,14.72" fill="none" stroke="#898768" stroke-miterlimit="10" stroke-width="3"/><path d="m21.72,82.2c11.56,0,20.93-9.37,20.93-20.93,0-4.29-1.29-8.28-3.5-11.6-3.75-5.63-25.81-17.32-25.56-39.15" fill="none" stroke="#898768" stroke-miterlimit="10" stroke-width="3"/><path d="m42.66,62.58c-1.58-3.95-4.37-7.45-8.24-9.89-9.77-6.18-22.7-3.27-28.88,6.5" fill="none" stroke="#898768" stroke-miterlimit="10" stroke-width="3"/><path d="m1.47,34.81c2.78,8.95,11.02,14.69,19.93,14.72" fill="none" stroke="#898768" stroke-miterlimit="10" stroke-width="3"/><path d="m33.54,18.07c-7.12,9.11-5.5,22.27,3.61,29.38" fill="none" stroke="#898768" stroke-miterlimit="10" stroke-width="3"/><path d="m56.41,21.13c-1.38-4.91-.94-10.24,1.35-14.9" fill="none" stroke="#898768" stroke-miterlimit="10" stroke-width="3"/><path d="m38.76,49.15c-4.42-5.24-3.76-13.06,1.48-17.48" fill="none" stroke="#898768" stroke-miterlimit="10" stroke-width="3"/></g><text transform="translate(105.45 57.3)" fill="#6a9a9b" font-family="ProximaNova-Medium, &apos;Proxima Nova&apos;" font-size="12" font-weight="500"><tspan x="0" y="0" letter-spacing=".13em">E</tspan><tspan x="8.38" y="0" letter-spacing=".12em">m</tspan><tspan x="19.7" y="0" letter-spacing=".13em">p</tspan><tspan x="28.15" y="0" letter-spacing=".12em">o</tspan><tspan x="36.42" y="0" letter-spacing=".11em">w</tspan><tspan x="46.73" y="0" letter-spacing=".12em">e</tspan><tspan x="54.92" y="0" letter-spacing=".12em">r</tspan><tspan x="60.43" y="0" letter-spacing=".12em">i</tspan><tspan x="64.69" y="0" letter-spacing=".12em">n</tspan><tspan x="72.89" y="0" letter-spacing=".12em">g </tspan><tspan x="85.91" y="0" letter-spacing=".11em">P</tspan><tspan x="94.43" y="0" letter-spacing=".13em">e</tspan><tspan x="102.67" y="0" letter-spacing=".13em">a</tspan><tspan x="111.12" y="0" letter-spacing=".11em">c</tspan><tspan x="118.4" y="0" letter-spacing=".12em">e</tspan><tspan x="126.55" y="0" letter-spacing=".12em">f</tspan><tspan x="131.58" y="0" letter-spacing=".12em">u</tspan><tspan x="139.75" y="0" letter-spacing=".12em">l </tspan><tspan x="148.64" y="0" letter-spacing=".11em">R</tspan><tspan x="157.43" y="0" letter-spacing=".12em">e</tspan><tspan x="165.6" y="0" letter-spacing=".12em">s</tspan><tspan x="172.66" y="0" letter-spacing=".13em">o</tspan><tspan x="181.03" y="0" letter-spacing=".12em">l</tspan><tspan x="185.27" y="0" letter-spacing=".13em">u</tspan><tspan x="193.5" y="0" letter-spacing=".13em">t</tspan><tspan x="198.69" y="0" letter-spacing=".12em">i</tspan><tspan x="202.93" y="0" letter-spacing=".12em">o</tspan><tspan x="211.28" y="0" letter-spacing=".12em">ns</tspan></text><text transform="translate(105.1 42.42)" fill="#548285" font-family="ProximaNova-Bold, &apos;Proxima Nova&apos;" font-size="20" font-weight="700"><tspan x="0" y="0" letter-spacing="-.01em">K</tspan><tspan x="12.49" y="0" letter-spacing=".02em">o</tspan><tspan x="24.43" y="0" letter-spacing=".02em">o</tspan><tspan x="36.36" y="0" letter-spacing=".02em">t</tspan><tspan x="43.49" y="0" letter-spacing=".02em">e</tspan><tspan x="54.96" y="0" letter-spacing=".02em">n</tspan><tspan x="66.96" y="0" letter-spacing=".03em">a</tspan><tspan x="79.22" y="0" letter-spacing=".02em">y </tspan><tspan x="95.6" y="0" letter-spacing=".03em">M</tspan><tspan x="113.24" y="0" letter-spacing=".02em">e</tspan><tspan x="124.78" y="0" letter-spacing=".02em">d</tspan><tspan x="136.86" y="0" letter-spacing=".02em">i</tspan><tspan x="142.34" y="0" letter-spacing=".03em">a</tspan><tspan x="154.58" y="0" letter-spacing=".03em">t</tspan><tspan x="161.85" y="0" letter-spacing=".02em">i</tspan><tspan x="167.23" y="0" letter-spacing=".02em">o</tspan><tspan x="179.13" y="0" letter-spacing=".03em">n</tspan></text></g></svg>