<?xml version="1.0" encoding="UTF-8"?><svg id="Layer_2" xmlns="http://www.w3.org/2000/svg" viewBox="0 0 229.33 82.69"><g id="TExt_Under_Logo"><g><text transform="translate(108.54 39.4)" fill="#fff" font-family="Bicyclette-Bold, Bicyclette" font-weight="700"><tspan font-size="18"><tspan x="0" y="0" letter-spacing=".09em">K</tspan><tspan x="13.75" y="0" letter-spacing=".12em">O</tspan><tspan x="29.33" y="0" letter-spacing=".11em">O</tspan><tspan x="44.68" y="0" letter-spacing=".12em">T</tspan><tspan x="57.97" y="0" letter-spacing=".14em">E</tspan><tspan x="71.39" y="0" letter-spacing=".12em">N</tspan><tspan x="87.26" y="0" letter-spacing=".04em">A</tspan><tspan x="100.46" y="0" letter-spacing=".13em">Y</tspan></tspan><tspan font-size="19"><tspan x="0" y="16" letter-spacing=".1em">M</tspan><tspan x="18.09" y="16" letter-spacing=".11em">E</tspan><tspan x="31.77" y="16" letter-spacing=".1em">D</tspan><tspan x="47.14" y="16" letter-spacing=".1em">I</tspan><tspan x="54.24" y="16" letter-spacing=".01em">A</tspan><tspan x="67.72" y="16" letter-spacing=".1em">T</tspan><tspan x="81.28" y="16" letter-spacing=".1em">I</tspan><tspan x="88.45" y="16" letter-spacing=".1em">O</tspan><tspan x="104.47" y="16" letter-spacing=".1em">N</tspan></tspan></text><g id="LEaves"><g><path d="m51.31,54.86s6.88,2.3,5.91,10.52c0,0-7.59-3.15-5.91-10.52Z" fill="#fff"/><path d="m66.84,36.78s1.52,7.09-6.05,10.44c0,0-1.15-8.13,6.05-10.44Z" fill="#fff"/><path d="m66.53,14s1.86,7.01-5.53,10.72c0,0-1.54-8.07,5.53-10.72Z" fill="#fff"/><path d="m41.23,22.14s-1.14,7.16-9.4,7.56c0,0,1.86-8,9.4-7.56Z" fill="#fff"/><path d="m43.77,34.56s7.12,1.39,7.22,9.67c0,0-7.93-2.14-7.22-9.67Z" fill="#fff"/><path d="m49.93,21.32s7.24.48,8.38,8.68c0,0-8.14-1.12-8.38-8.68Z" fill="#fff"/><path d="m47.87,11.62s2.66,6.75-4.25,11.29c0,0-2.47-7.83,4.25-11.29Z" fill="#fff"/><path d="m27.19,16.24s1.98,6.98-5.36,10.81c0,0-1.68-8.04,5.36-10.81Z" fill="#fff"/><path d="m68.05,30.5s4.7-5.53,11.96-1.57c0,0-5.75,5.87-11.96,1.57Z" fill="#fff"/><path d="m36.65,54s-6.88,2.3-5.91,10.52c0,0,7.59-3.15,5.91-10.52Z" fill="#fff"/><path d="m20.58,37.4s-1.52,7.09,6.05,10.44c0,0,1.15-8.13-6.05-10.44Z" fill="#fff"/><path d="m19.75,29.15s-5.72-4.45-12.03.91c0,0,6.82,4.57,12.03-.91Z" fill="#fff"/><path d="m0,45.1s.34,7.24,8.51,8.56c0,0-.96-8.16-8.51-8.56Z" fill="#fff"/><path d="m89.19,45.63s-7.24.34-8.56,8.51c0,0,8.16-.96,8.56-8.51Z" fill="#fff"/></g></g><g id="Olives"><g><ellipse cx="64.52" cy="55.65" rx="3.49" ry="2.51" transform="translate(-15.93 83.7) rotate(-60)" fill="#fff"/><ellipse cx="74.62" cy="37.6" rx="3.49" ry="2.51" transform="translate(4.75 83.42) rotate(-60)" fill="#fff"/><ellipse cx="22.34" cy="55.86" rx="2.51" ry="3.49" transform="translate(-24.94 18.65) rotate(-30)" fill="#fff"/><ellipse cx="24.55" cy="8.59" rx="3.49" ry="2.51" transform="translate(7.85 28.53) rotate(-69.35)" fill="#fff"/><ellipse cx="47.07" cy="28.99" rx="2.51" ry="3.49" transform="translate(-7.6 20.8) rotate(-23.11)" fill="#fff"/><ellipse cx="81.36" cy="22.88" rx="2.29" ry="3.19" transform="translate(1.78 51.33) rotate(-35.38)" fill="#fff"/><ellipse cx="66.49" cy="7.58" rx="2.29" ry="3.19" transform="translate(7.89 39.9) rotate(-35.38)" fill="#fff"/><ellipse cx="47.49" cy="2.3" rx="3.19" ry="2.29" transform="translate(-.04 3.57) rotate(-4.31)" fill="#fff"/><ellipse cx="13.5" cy="37.84" rx="2.51" ry="3.49" transform="translate(-17.11 11.82) rotate(-30)" fill="#fff"/><ellipse cx="7.57" cy="22.07" rx="3.19" ry="2.29" transform="translate(-14.8 15.47) rotate(-54.62)" fill="#fff"/></g></g><g id="Branches"><path d="m65.68,81.19c-11.56,0-20.93-9.37-20.93-20.93,0-4.29,1.29-8.28,3.5-11.6,3.75-5.63,25.81-17.32,25.56-39.15" fill="none" stroke="#fff" stroke-miterlimit="10" stroke-width="3"/><path d="m44.73,61.57c1.58-3.95,4.37-7.45,8.24-9.89,9.77-6.18,22.7-3.27,28.88,6.5" fill="none" stroke="#fff" stroke-miterlimit="10" stroke-width="3"/><path d="m53.27,43.72c8.34-8,8.62-21.25.61-29.6-3.17-3.3-7.16-5.34-11.34-6.1-3.2-.45-5.19-.47-7.9-.45" fill="none" stroke="#fff" stroke-miterlimit="10" stroke-width="3"/><path d="m85.92,33.8c-2.78,8.95-11.02,14.69-19.93,14.72" fill="none" stroke="#fff" stroke-miterlimit="10" stroke-width="3"/><path d="m23.24,81.19c11.56,0,20.93-9.37,20.93-20.93,0-4.29-1.29-8.28-3.5-11.6-3.75-5.63-25.81-17.32-25.56-39.15" fill="none" stroke="#fff" stroke-miterlimit="10" stroke-width="3"/><path d="m44.18,61.57c-1.58-3.95-4.37-7.45-8.24-9.89-9.77-6.18-22.7-3.27-28.88,6.5" fill="none" stroke="#fff" stroke-miterlimit="10" stroke-width="3"/><path d="m2.99,33.8c2.78,8.95,11.02,14.69,19.93,14.72" fill="none" stroke="#fff" stroke-miterlimit="10" stroke-width="3"/><path d="m35.06,17.06c-7.12,9.11-5.5,22.27,3.61,29.38" fill="none" stroke="#fff" stroke-miterlimit="10" stroke-width="3"/><path d="m57.93,20.12c-1.38-4.91-.94-10.24,1.35-14.9" fill="none" stroke="#fff" stroke-miterlimit="10" stroke-width="3"/><path d="m40.28,48.14c-4.42-5.24-3.76-13.06,1.48-17.48" fill="none" stroke="#fff" stroke-miterlimit="10" stroke-width="3"/></g></g></g></svg>