<?xml version="1.0" encoding="UTF-8"?><svg id="Layer_2" xmlns="http://www.w3.org/2000/svg" viewBox="0 0 367.71 82.69"><g id="Tree_3_Color_copy"><g id="Layer_5_copy_2"><g id="LEaves"><g><path d="m51.31,54.86s6.88,2.3,5.91,10.52c0,0-7.59-3.15-5.91-10.52Z" fill="#90b9a6"/><path d="m66.84,36.78s1.52,7.09-6.05,10.44c0,0-1.15-8.13,6.05-10.44Z" fill="#90b9a6"/><path d="m66.53,14s1.86,7.01-5.53,10.72c0,0-1.54-8.07,5.53-10.72Z" fill="#90b9a6"/><path d="m41.23,22.14s-1.14,7.16-9.4,7.56c0,0,1.86-8,9.4-7.56Z" fill="#90b9a6"/><path d="m43.77,34.56s7.12,1.39,7.22,9.67c0,0-7.93-2.14-7.22-9.67Z" fill="#90b9a6"/><path d="m49.93,21.32s7.24.48,8.38,8.68c0,0-8.14-1.12-8.38-8.68Z" fill="#90b9a6"/><path d="m47.87,11.62s2.66,6.75-4.25,11.29c0,0-2.47-7.83,4.25-11.29Z" fill="#90b9a6"/><path d="m27.19,16.24s1.98,6.98-5.36,10.81c0,0-1.68-8.04,5.36-10.81Z" fill="#90b9a6"/><path d="m68.05,30.5s4.7-5.53,11.96-1.57c0,0-5.75,5.87-11.96,1.57Z" fill="#90b9a6"/><path d="m36.65,54s-6.88,2.3-5.91,10.52c0,0,7.59-3.15,5.91-10.52Z" fill="#90b9a6"/><path d="m20.58,37.4s-1.52,7.09,6.05,10.44c0,0,1.15-8.13-6.05-10.44Z" fill="#90b9a6"/><path d="m19.75,29.15s-5.72-4.45-12.03.91c0,0,6.82,4.57,12.03-.91Z" fill="#90b9a6"/><path d="m0,45.1s.34,7.24,8.51,8.56c0,0-.96-8.16-8.51-8.56Z" fill="#90b9a6"/><path d="m89.19,45.63s-7.24.34-8.56,8.51c0,0,8.16-.96,8.56-8.51Z" fill="#90b9a6"/></g></g><g id="Olives"><g><ellipse cx="64.52" cy="55.65" rx="3.49" ry="2.51" transform="translate(-15.93 83.7) rotate(-60)" fill="#b0ab84"/><ellipse cx="74.62" cy="37.6" rx="3.49" ry="2.51" transform="translate(4.75 83.42) rotate(-60)" fill="#b0ab84"/><ellipse cx="22.34" cy="55.86" rx="2.51" ry="3.49" transform="translate(-24.94 18.65) rotate(-30)" fill="#b0ab84"/><ellipse cx="24.55" cy="8.59" rx="3.49" ry="2.51" transform="translate(7.85 28.53) rotate(-69.35)" fill="#b0ab84"/><ellipse cx="47.07" cy="28.99" rx="2.51" ry="3.49" transform="translate(-7.6 20.8) rotate(-23.11)" fill="#b0ab84"/><ellipse cx="81.36" cy="22.88" rx="2.29" ry="3.19" transform="translate(1.78 51.33) rotate(-35.38)" fill="#b0ab84"/><ellipse cx="66.49" cy="7.58" rx="2.29" ry="3.19" transform="translate(7.89 39.9) rotate(-35.38)" fill="#b0ab84"/><ellipse cx="47.49" cy="2.3" rx="3.19" ry="2.29" transform="translate(-.04 3.57) rotate(-4.31)" fill="#b0ab84"/><ellipse cx="13.5" cy="37.84" rx="2.51" ry="3.49" transform="translate(-17.11 11.82) rotate(-30)" fill="#b0ab84"/><ellipse cx="7.57" cy="22.07" rx="3.19" ry="2.29" transform="translate(-14.8 15.47) rotate(-54.62)" fill="#b0ab84"/></g></g><g id="Branches"><path d="m65.68,81.19c-11.56,0-20.93-9.37-20.93-20.93,0-4.29,1.29-8.28,3.5-11.6,3.75-5.63,25.81-17.32,25.56-39.15" fill="none" stroke="#548285" stroke-miterlimit="10" stroke-width="3"/><path d="m44.73,61.57c1.58-3.95,4.37-7.45,8.24-9.89,9.77-6.18,22.7-3.27,28.88,6.5" fill="none" stroke="#548285" stroke-miterlimit="10" stroke-width="3"/><path d="m53.27,43.72c8.34-8,8.62-21.25.61-29.6-3.17-3.3-7.16-5.34-11.34-6.1-3.2-.45-5.19-.47-7.9-.45" fill="none" stroke="#548285" stroke-miterlimit="10" stroke-width="3"/><path d="m85.92,33.8c-2.78,8.95-11.02,14.69-19.93,14.72" fill="none" stroke="#548285" stroke-miterlimit="10" stroke-width="3"/><path d="m23.24,81.19c11.56,0,20.93-9.37,20.93-20.93,0-4.29-1.29-8.28-3.5-11.6-3.75-5.63-25.81-17.32-25.56-39.15" fill="none" stroke="#548285" stroke-miterlimit="10" stroke-width="3"/><path d="m44.18,61.57c-1.58-3.95-4.37-7.45-8.24-9.89-9.77-6.18-22.7-3.27-28.88,6.5" fill="none" stroke="#548285" stroke-miterlimit="10" stroke-width="3"/><path d="m2.99,33.8c2.78,8.95,11.02,14.69,19.93,14.72" fill="none" stroke="#548285" stroke-miterlimit="10" stroke-width="3"/><path d="m35.06,17.06c-7.12,9.11-5.5,22.27,3.61,29.38" fill="none" stroke="#548285" stroke-miterlimit="10" stroke-width="3"/><path d="m57.93,20.12c-1.38-4.91-.94-10.24,1.35-14.9" fill="none" stroke="#548285" stroke-miterlimit="10" stroke-width="3"/><path d="m40.28,48.14c-4.42-5.24-3.76-13.06,1.48-17.48" fill="none" stroke="#548285" stroke-miterlimit="10" stroke-width="3"/></g><g><path d="m108.12,54v-9.36h6.13v1.04h-4.97v3.02h4.87v1.04h-4.87v3.23h4.97v1.04h-6.13Z" fill="#548285"/><path d="m125.96,54v-4.6c0-.86-.38-1.4-1.25-1.4-.7,0-1.45.5-1.8,1.04v4.97h-1.05v-4.6c0-.86-.37-1.4-1.25-1.4-.69,0-1.42.5-1.78,1.05v4.96h-1.05v-6.78h1.05v.98c.28-.43,1.19-1.15,2.19-1.15s1.63.56,1.83,1.26c.38-.62,1.29-1.26,2.27-1.26,1.24,0,1.9.69,1.9,2.05v4.9h-1.05Z" fill="#548285"/><path d="m131.91,56.59h-1.05v-9.36h1.05v1.01c.49-.69,1.33-1.18,2.29-1.18,1.78,0,3.02,1.35,3.02,3.55s-1.24,3.57-3.02,3.57c-.93,0-1.74-.44-2.29-1.19v3.61Zm2.02-8.59c-.83,0-1.66.49-2.02,1.08v3.06c.37.59,1.19,1.1,2.02,1.1,1.36,0,2.18-1.12,2.18-2.63s-.81-2.61-2.18-2.61Z" fill="#548285"/><path d="m140.31,50.6c0-1.96,1.29-3.55,3.36-3.55s3.35,1.59,3.35,3.55-1.29,3.57-3.35,3.57-3.36-1.6-3.36-3.57Zm5.6,0c0-1.38-.8-2.61-2.25-2.61s-2.26,1.24-2.26,2.61.81,2.63,2.26,2.63,2.25-1.24,2.25-2.63Z" fill="#548285"/><path d="m156.25,54l-1.77-5.45-1.77,5.45h-1.05l-2.16-6.78h1.1l1.66,5.4,1.78-5.4h.9l1.78,5.4,1.66-5.4h1.1l-2.16,6.78h-1.05Z" fill="#548285"/><path d="m165.25,47.05c2.05,0,3.26,1.6,3.26,3.64v.27h-5.49c.08,1.28.98,2.34,2.44,2.34.77,0,1.56-.31,2.09-.86l.51.69c-.67.67-1.59,1.04-2.7,1.04-2.01,0-3.45-1.45-3.45-3.57,0-1.96,1.4-3.55,3.34-3.55Zm-2.23,3.13h4.45c-.01-1.01-.69-2.26-2.23-2.26-1.45,0-2.16,1.22-2.22,2.26Z" fill="#548285"/><path d="m171.93,54v-6.78h1.05v1.09c.55-.72,1.33-1.24,2.26-1.24v1.08c-.13-.03-.25-.04-.42-.04-.65,0-1.53.53-1.84,1.08v4.8h-1.05Z" fill="#548285"/><path d="m178.12,45.37c0-.39.32-.7.7-.7s.72.31.72.7-.32.72-.72.72-.7-.32-.7-.72Zm.18,8.63v-6.78h1.05v6.78h-1.05Z" fill="#548285"/><path d="m187.75,54v-4.44c0-1.19-.6-1.57-1.52-1.57-.83,0-1.61.5-2.01,1.05v4.96h-1.05v-6.78h1.05v.98c.48-.56,1.4-1.15,2.42-1.15,1.42,0,2.16.72,2.16,2.19v4.76h-1.05Z" fill="#548285"/><path d="m193.17,54.96c.56.67,1.24.93,2.2.93,1.12,0,2.18-.55,2.18-2.04v-.97c-.49.69-1.32,1.21-2.27,1.21-1.77,0-3.02-1.32-3.02-3.51s1.24-3.52,3.02-3.52c.91,0,1.73.45,2.27,1.19v-1.02h1.05v6.58c0,2.25-1.57,2.95-3.23,2.95-1.15,0-1.94-.22-2.74-1.01l.53-.79Zm4.38-5.87c-.37-.59-1.18-1.09-2.02-1.09-1.36,0-2.18,1.08-2.18,2.58s.81,2.58,2.18,2.58c.84,0,1.66-.52,2.02-1.11v-2.96Z" fill="#548285"/><path d="m207.89,54v-9.36h3.76c1.88,0,2.93,1.29,2.93,2.82s-1.08,2.82-2.93,2.82h-2.6v3.72h-1.17Zm3.62-8.32h-2.46v3.57h2.46c1.11,0,1.87-.73,1.87-1.78s-.76-1.78-1.87-1.78Z" fill="#548285"/><path d="m220.6,47.05c2.05,0,3.26,1.6,3.26,3.64v.27h-5.49c.08,1.28.98,2.34,2.44,2.34.77,0,1.56-.31,2.09-.86l.51.69c-.67.67-1.59,1.04-2.7,1.04-2.01,0-3.45-1.45-3.45-3.57,0-1.96,1.4-3.55,3.34-3.55Zm-2.23,3.13h4.45c-.01-1.01-.69-2.26-2.23-2.26-1.45,0-2.16,1.22-2.22,2.26Z" fill="#548285"/><path d="m232.25,54v-1.01c-.51.69-1.33,1.18-2.29,1.18-1.77,0-3.02-1.35-3.02-3.55s1.24-3.57,3.02-3.57c.91,0,1.74.45,2.29,1.19v-1.02h1.05v6.78h-1.05Zm0-4.91c-.38-.59-1.19-1.09-2.04-1.09-1.36,0-2.18,1.12-2.18,2.62s.81,2.61,2.18,2.61c.84,0,1.66-.48,2.04-1.07v-3.07Z" fill="#548285"/><path d="m240.16,47.05c1.24,0,1.97.5,2.48,1.18l-.7.65c-.45-.62-1.02-.88-1.73-.88-1.45,0-2.34,1.11-2.34,2.61s.9,2.63,2.34,2.63c.7,0,1.28-.28,1.73-.88l.7.65c-.52.67-1.25,1.18-2.48,1.18-2.02,0-3.38-1.54-3.38-3.57s1.36-3.55,3.38-3.55Z" fill="#548285"/><path d="m248.63,47.05c2.05,0,3.26,1.6,3.26,3.64v.27h-5.49c.08,1.28.98,2.34,2.44,2.34.77,0,1.56-.31,2.09-.86l.51.69c-.67.67-1.59,1.04-2.7,1.04-2.01,0-3.45-1.45-3.45-3.57,0-1.96,1.4-3.55,3.34-3.55Zm-2.23,3.13h4.45c-.01-1.01-.69-2.26-2.23-2.26-1.45,0-2.16,1.22-2.22,2.26Z" fill="#548285"/><path d="m256.6,48.15v5.85h-1.05v-5.85h-1.12v-.93h1.12v-.52c0-1.4.79-2.2,1.97-2.2.39,0,.76.07,1.02.24l-.27.79c-.17-.1-.37-.15-.6-.15-.69,0-1.07.48-1.07,1.33v.52h1.38v.93h-1.38Z" fill="#548285"/><path d="m265.57,54v-.95c-.52.59-1.4,1.12-2.41,1.12-1.42,0-2.16-.69-2.16-2.16v-4.79h1.05v4.46c0,1.19.6,1.54,1.52,1.54.83,0,1.61-.48,2.01-1.03v-4.98h1.05v6.78h-1.05Z" fill="#548285"/><path d="m270.45,54v-9.36h1.05v9.36h-1.05Z" fill="#548285"/><path d="m286.2,54l-2.39-3.72h-1.87v3.72h-1.17v-9.36h3.76c1.71,0,2.93,1.09,2.93,2.82s-1.15,2.61-2.43,2.72l2.53,3.82h-1.38Zm-1.8-8.32h-2.46v3.58h2.46c1.11,0,1.87-.74,1.87-1.8s-.76-1.78-1.87-1.78Z" fill="#548285"/><path d="m293.77,47.05c2.05,0,3.26,1.6,3.26,3.64v.27h-5.49c.08,1.28.98,2.34,2.44,2.34.77,0,1.56-.31,2.09-.86l.51.69c-.67.67-1.59,1.04-2.7,1.04-2.01,0-3.45-1.45-3.45-3.57,0-1.96,1.4-3.55,3.34-3.55Zm-2.23,3.13h4.45c-.01-1.01-.69-2.26-2.23-2.26-1.45,0-2.16,1.22-2.22,2.26Z" fill="#548285"/><path d="m300.39,52.35c.45.52,1.31.97,2.23.97,1.04,0,1.6-.46,1.6-1.12,0-.74-.83-.98-1.74-1.21-1.15-.27-2.46-.58-2.46-1.98,0-1.05.91-1.95,2.53-1.95,1.15,0,1.96.43,2.51.98l-.49.73c-.41-.49-1.15-.86-2.02-.86-.93,0-1.5.42-1.5,1.03,0,.66.77.87,1.66,1.08,1.18.27,2.54.6,2.54,2.11,0,1.14-.91,2.05-2.67,2.05-1.11,0-2.05-.34-2.74-1.07l.55-.76Z" fill="#548285"/><path d="m308.26,50.6c0-1.96,1.29-3.55,3.36-3.55s3.35,1.59,3.35,3.55-1.29,3.57-3.35,3.57-3.36-1.6-3.36-3.57Zm5.6,0c0-1.38-.8-2.61-2.25-2.61s-2.26,1.24-2.26,2.61.81,2.63,2.26,2.63,2.25-1.24,2.25-2.63Z" fill="#548285"/><path d="m318.44,54v-9.36h1.05v9.36h-1.05Z" fill="#548285"/><path d="m327.88,54v-.95c-.52.59-1.4,1.12-2.41,1.12-1.42,0-2.16-.69-2.16-2.16v-4.79h1.05v4.46c0,1.19.6,1.54,1.52,1.54.83,0,1.61-.48,2.01-1.03v-4.98h1.05v6.78h-1.05Z" fill="#548285"/><path d="m333.06,52.58v-4.44h-1.12v-.93h1.12v-1.85h1.05v1.85h1.38v.93h-1.38v4.21c0,.51.22.87.69.87.29,0,.58-.13.72-.28l.31.79c-.27.25-.65.44-1.26.44-1,0-1.5-.58-1.5-1.59Z" fill="#548285"/><path d="m338.61,45.37c0-.39.32-.7.7-.7s.72.31.72.7-.32.72-.72.72-.7-.32-.7-.72Zm.18,8.63v-6.78h1.05v6.78h-1.05Z" fill="#548285"/><path d="m343.25,50.6c0-1.96,1.29-3.55,3.36-3.55s3.35,1.59,3.35,3.55-1.29,3.57-3.35,3.57-3.36-1.6-3.36-3.57Zm5.6,0c0-1.38-.8-2.61-2.25-2.61s-2.26,1.24-2.26,2.61.81,2.63,2.26,2.63,2.25-1.24,2.25-2.63Z" fill="#548285"/><path d="m357.99,54v-4.44c0-1.19-.6-1.57-1.52-1.57-.83,0-1.61.5-2.01,1.05v4.96h-1.05v-6.78h1.05v.98c.48-.56,1.4-1.15,2.41-1.15,1.42,0,2.16.72,2.16,2.19v4.76h-1.05Z" fill="#548285"/><path d="m362.85,52.35c.45.52,1.31.97,2.23.97,1.04,0,1.6-.46,1.6-1.12,0-.74-.83-.98-1.74-1.21-1.15-.27-2.46-.58-2.46-1.98,0-1.05.91-1.95,2.53-1.95,1.15,0,1.96.43,2.51.98l-.49.73c-.41-.49-1.15-.86-2.02-.86-.93,0-1.5.42-1.5,1.03,0,.66.77.87,1.66,1.08,1.18.27,2.54.6,2.54,2.11,0,1.14-.91,2.05-2.67,2.05-1.11,0-2.05-.34-2.74-1.07l.55-.76Z" fill="#548285"/></g><g><path d="m117.43,40.08l-4.73-6.25-1.22,1.45v4.8h-3.32v-15.61h3.32v6.98l5.52-6.98h4.1l-6.2,7.33,6.62,8.29h-4.1Z" fill="#548285"/><path d="m121.96,34.42c0-3.21,2.25-5.92,5.97-5.92s5.99,2.71,5.99,5.92-2.25,5.95-5.99,5.95-5.97-2.72-5.97-5.95Zm8.87,0c0-1.76-1.05-3.28-2.9-3.28s-2.88,1.52-2.88,3.28,1.03,3.3,2.88,3.3,2.9-1.52,2.9-3.3Z" fill="#548285"/><path d="m135.9,34.42c0-3.21,2.25-5.92,5.97-5.92s5.99,2.71,5.99,5.92-2.25,5.95-5.99,5.95-5.97-2.72-5.97-5.95Zm8.87,0c0-1.76-1.05-3.28-2.9-3.28s-2.88,1.52-2.88,3.28,1.03,3.3,2.88,3.3,2.9-1.52,2.9-3.3Z" fill="#548285"/><path d="m151.15,37.27v-5.9h-1.87v-2.6h1.87v-3.09h3v3.09h2.29v2.6h-2.29v5.1c0,.7.37,1.24,1.03,1.24.44,0,.87-.16,1.03-.33l.63,2.25c-.44.4-1.24.73-2.48.73-2.08,0-3.21-1.08-3.21-3.09Z" fill="#548285"/><path d="m164.02,28.5c3.37,0,5.66,2.53,5.66,6.23v.66h-8.4c.19,1.43,1.33,2.62,3.25,2.62,1.05,0,2.29-.42,3.02-1.12l1.31,1.92c-1.15,1.05-2.9,1.57-4.66,1.57-3.44,0-6.04-2.32-6.04-5.95,0-3.28,2.41-5.92,5.85-5.92Zm-2.79,4.87h5.57c-.07-1.08-.82-2.5-2.79-2.5-1.85,0-2.65,1.38-2.79,2.5Z" fill="#548285"/><path d="m179.92,40.08v-6.83c0-1.57-.82-2.11-2.08-2.11-1.17,0-2.08.66-2.57,1.33v7.61h-2.97v-11.31h2.97v1.47c.73-.87,2.11-1.75,3.96-1.75,2.48,0,3.67,1.4,3.67,3.6v7.98h-2.97Z" fill="#548285"/><path d="m194.08,40.08v-1.43c-.89,1.1-2.13,1.71-3.49,1.71-2.86,0-5.01-2.15-5.01-5.92s2.13-5.95,5.01-5.95c1.33,0,2.6.58,3.49,1.73v-1.45h3v11.31h-3Zm0-7.63c-.51-.75-1.57-1.29-2.57-1.29-1.69,0-2.86,1.31-2.86,3.28s1.17,3.28,2.86,3.28c1.01,0,2.06-.54,2.57-1.29v-3.98Z" fill="#548285"/><path d="m200.68,41.84c.26.12.66.19.94.19.77,0,1.29-.21,1.57-.82l.42-.96-4.59-11.47h3.18l2.95,7.87,2.95-7.87h3.21l-5.31,13.16c-.84,2.13-2.34,2.69-4.28,2.74-.35,0-1.1-.07-1.47-.16l.44-2.67Z" fill="#548285"/><path d="m233.45,40.08v-11.24l-4.4,11.24h-1.45l-4.4-11.24v11.24h-3.32v-15.61h4.66l3.79,9.74,3.79-9.74h4.68v15.61h-3.35Z" fill="#548285"/><path d="m245.56,28.5c3.37,0,5.66,2.53,5.66,6.23v.66h-8.4c.19,1.43,1.33,2.62,3.25,2.62,1.05,0,2.29-.42,3.02-1.12l1.31,1.92c-1.15,1.05-2.9,1.57-4.66,1.57-3.44,0-6.04-2.32-6.04-5.95,0-3.28,2.41-5.92,5.85-5.92Zm-2.79,4.87h5.57c-.07-1.08-.82-2.5-2.79-2.5-1.85,0-2.65,1.38-2.79,2.5Z" fill="#548285"/><path d="m261.68,40.08v-1.43c-.89,1.1-2.13,1.71-3.49,1.71-2.86,0-5.01-2.15-5.01-5.92s2.13-5.95,5.01-5.95c1.33,0,2.6.58,3.49,1.73v-5.76h3v15.61h-3Zm0-7.65c-.51-.75-1.57-1.29-2.57-1.29-1.69,0-2.86,1.33-2.86,3.3s1.17,3.28,2.86,3.28c1.01,0,2.06-.54,2.57-1.29v-4Z" fill="#548285"/><path d="m267.72,25.34c0-.98.82-1.78,1.78-1.78s1.78.8,1.78,1.78-.8,1.78-1.78,1.78-1.78-.8-1.78-1.78Zm.3,14.75v-11.31h2.97v11.31h-2.97Z" fill="#548285"/><path d="m282.19,40.08v-1.43c-.89,1.1-2.13,1.71-3.49,1.71-2.86,0-5.01-2.15-5.01-5.92s2.13-5.95,5.01-5.95c1.33,0,2.6.58,3.49,1.73v-1.45h3v11.31h-3Zm0-7.63c-.51-.75-1.57-1.29-2.57-1.29-1.69,0-2.86,1.31-2.86,3.28s1.17,3.28,2.86,3.28c1.01,0,2.06-.54,2.57-1.29v-3.98Z" fill="#548285"/><path d="m289.3,37.27v-5.9h-1.87v-2.6h1.87v-3.09h3v3.09h2.29v2.6h-2.29v5.1c0,.7.37,1.24,1.03,1.24.44,0,.87-.16,1.03-.33l.63,2.25c-.44.4-1.24.73-2.48.73-2.08,0-3.21-1.08-3.21-3.09Z" fill="#548285"/><path d="m296.9,25.34c0-.98.82-1.78,1.78-1.78s1.78.8,1.78,1.78-.8,1.78-1.78,1.78-1.78-.8-1.78-1.78Zm.3,14.75v-11.31h2.97v11.31h-2.97Z" fill="#548285"/><path d="m302.75,34.42c0-3.21,2.25-5.92,5.97-5.92s5.99,2.71,5.99,5.92-2.25,5.95-5.99,5.95-5.97-2.72-5.97-5.95Zm8.87,0c0-1.76-1.05-3.28-2.9-3.28s-2.88,1.52-2.88,3.28,1.03,3.3,2.88,3.3,2.9-1.52,2.9-3.3Z" fill="#548285"/><path d="m325.01,40.08v-6.83c0-1.57-.82-2.11-2.08-2.11-1.17,0-2.08.66-2.57,1.33v7.61h-2.97v-11.31h2.97v1.47c.73-.87,2.11-1.75,3.96-1.75,2.48,0,3.67,1.4,3.67,3.6v7.98h-2.97Z" fill="#548285"/></g></g></g></svg>