<?xml version="1.0" encoding="UTF-8"?><svg id="Layer_2" xmlns="http://www.w3.org/2000/svg" viewBox="0 0 108.11 133.75"><g id="Tree_3_Color_copy"><g id="Layer_5_copy_3"><g id="LEaves"><g><path d="m60.91,54.86s6.88,2.3,5.91,10.52c0,0-7.59-3.15-5.91-10.52Z" fill="#90b9a6"/><path d="m76.44,36.78s1.52,7.09-6.05,10.44c0,0-1.15-8.13,6.05-10.44Z" fill="#90b9a6"/><path d="m76.13,14s1.86,7.01-5.53,10.72c0,0-1.54-8.07,5.53-10.72Z" fill="#90b9a6"/><path d="m50.83,22.14s-1.14,7.16-9.4,7.56c0,0,1.86-8,9.4-7.56Z" fill="#90b9a6"/><path d="m53.37,34.56s7.12,1.39,7.22,9.67c0,0-7.93-2.14-7.22-9.67Z" fill="#90b9a6"/><path d="m59.53,21.32s7.24.48,8.38,8.68c0,0-8.14-1.12-8.38-8.68Z" fill="#90b9a6"/><path d="m57.47,11.62s2.66,6.75-4.25,11.29c0,0-2.47-7.83,4.25-11.29Z" fill="#90b9a6"/><path d="m36.79,16.24s1.98,6.98-5.36,10.81c0,0-1.68-8.04,5.36-10.81Z" fill="#90b9a6"/><path d="m77.65,30.5s4.7-5.53,11.96-1.57c0,0-5.75,5.87-11.96,1.57Z" fill="#90b9a6"/><path d="m46.26,54s-6.88,2.3-5.91,10.52c0,0,7.59-3.15,5.91-10.52Z" fill="#90b9a6"/><path d="m30.18,37.4s-1.52,7.09,6.05,10.44c0,0,1.15-8.13-6.05-10.44Z" fill="#90b9a6"/><path d="m29.35,29.15s-5.72-4.45-12.03.91c0,0,6.82,4.57,12.03-.91Z" fill="#90b9a6"/><path d="m9.6,45.1s.34,7.24,8.51,8.56c0,0-.96-8.16-8.51-8.56Z" fill="#90b9a6"/><path d="m98.79,45.63s-7.24.34-8.56,8.51c0,0,8.16-.96,8.56-8.51Z" fill="#90b9a6"/></g></g><g id="Olives"><g><ellipse cx="74.12" cy="55.65" rx="3.49" ry="2.51" transform="translate(-11.13 92.02) rotate(-60)" fill="#b0ab84"/><ellipse cx="84.22" cy="37.6" rx="3.49" ry="2.51" transform="translate(9.55 91.74) rotate(-60)" fill="#b0ab84"/><ellipse cx="31.94" cy="55.86" rx="2.51" ry="3.49" transform="translate(-23.65 23.46) rotate(-30)" fill="#b0ab84"/><ellipse cx="34.15" cy="8.59" rx="3.49" ry="2.51" transform="translate(14.07 37.52) rotate(-69.35)" fill="#b0ab84"/><ellipse cx="56.67" cy="28.99" rx="2.51" ry="3.49" transform="translate(-6.83 24.57) rotate(-23.11)" fill="#b0ab84"/><ellipse cx="90.96" cy="22.88" rx="2.29" ry="3.19" transform="translate(3.55 56.89) rotate(-35.38)" fill="#b0ab84"/><ellipse cx="76.09" cy="7.58" rx="2.29" ry="3.19" transform="translate(9.66 45.45) rotate(-35.38)" fill="#b0ab84"/><ellipse cx="57.09" cy="2.3" rx="3.19" ry="2.29" transform="translate(-.01 4.29) rotate(-4.31)" fill="#b0ab84"/><ellipse cx="23.1" cy="37.84" rx="2.51" ry="3.49" transform="translate(-15.83 16.62) rotate(-30)" fill="#b0ab84"/><ellipse cx="17.17" cy="22.07" rx="3.19" ry="2.29" transform="translate(-10.76 23.29) rotate(-54.62)" fill="#b0ab84"/></g></g><g id="Branches"><path d="m75.28,81.19c-11.56,0-20.93-9.37-20.93-20.93,0-4.29,1.29-8.28,3.5-11.6,3.75-5.63,25.81-17.32,25.56-39.15" fill="none" stroke="#548285" stroke-miterlimit="10" stroke-width="3"/><path d="m54.33,61.57c1.58-3.95,4.37-7.45,8.24-9.89,9.77-6.18,22.7-3.27,28.88,6.5" fill="none" stroke="#548285" stroke-miterlimit="10" stroke-width="3"/><path d="m62.87,43.72c8.34-8,8.62-21.25.61-29.6-3.17-3.3-7.16-5.34-11.34-6.1-3.2-.45-5.19-.47-7.9-.45" fill="none" stroke="#548285" stroke-miterlimit="10" stroke-width="3"/><path d="m95.52,33.8c-2.78,8.95-11.02,14.69-19.93,14.72" fill="none" stroke="#548285" stroke-miterlimit="10" stroke-width="3"/><path d="m32.84,81.19c11.56,0,20.93-9.37,20.93-20.93,0-4.29-1.29-8.28-3.5-11.6-3.75-5.63-25.81-17.32-25.56-39.15" fill="none" stroke="#548285" stroke-miterlimit="10" stroke-width="3"/><path d="m53.79,61.57c-1.58-3.95-4.37-7.45-8.24-9.89-9.77-6.18-22.7-3.27-28.88,6.5" fill="none" stroke="#548285" stroke-miterlimit="10" stroke-width="3"/><path d="m12.59,33.8c2.78,8.95,11.02,14.69,19.93,14.72" fill="none" stroke="#548285" stroke-miterlimit="10" stroke-width="3"/><path d="m44.66,17.06c-7.12,9.11-5.5,22.27,3.61,29.38" fill="none" stroke="#548285" stroke-miterlimit="10" stroke-width="3"/><path d="m67.53,20.12c-1.38-4.91-.94-10.24,1.35-14.9" fill="none" stroke="#548285" stroke-miterlimit="10" stroke-width="3"/><path d="m49.89,48.14c-4.42-5.24-3.76-13.06,1.48-17.48" fill="none" stroke="#548285" stroke-miterlimit="10" stroke-width="3"/></g><g><g><path d="m12.5,112.36l-4.73-6.25-1.22,1.45v4.8h-3.32v-15.61h3.32v6.98l5.52-6.98h4.1l-6.2,7.33,6.62,8.29h-4.1Z" fill="#548285"/><path d="m17.03,106.69c0-3.21,2.25-5.92,5.97-5.92s5.99,2.71,5.99,5.92-2.25,5.95-5.99,5.95-5.97-2.72-5.97-5.95Zm8.87,0c0-1.76-1.05-3.28-2.9-3.28s-2.88,1.52-2.88,3.28,1.03,3.3,2.88,3.3,2.9-1.52,2.9-3.3Z" fill="#548285"/><path d="m30.98,106.69c0-3.21,2.25-5.92,5.97-5.92s5.99,2.71,5.99,5.92-2.25,5.95-5.99,5.95-5.97-2.72-5.97-5.95Zm8.87,0c0-1.76-1.05-3.28-2.9-3.28s-2.88,1.52-2.88,3.28,1.03,3.3,2.88,3.3,2.9-1.52,2.9-3.3Z" fill="#548285"/><path d="m46.22,109.55v-5.9h-1.87v-2.6h1.87v-3.09h3v3.09h2.29v2.6h-2.29v5.1c0,.7.37,1.24,1.03,1.24.44,0,.87-.16,1.03-.33l.63,2.25c-.44.4-1.24.73-2.48.73-2.08,0-3.21-1.08-3.21-3.09Z" fill="#548285"/><path d="m59.09,100.77c3.37,0,5.66,2.53,5.66,6.23v.66h-8.4c.19,1.43,1.33,2.62,3.25,2.62,1.05,0,2.29-.42,3.02-1.12l1.31,1.92c-1.15,1.05-2.9,1.57-4.66,1.57-3.44,0-6.04-2.32-6.04-5.95,0-3.28,2.41-5.92,5.85-5.92Zm-2.79,4.87h5.57c-.07-1.08-.82-2.5-2.79-2.5-1.85,0-2.65,1.38-2.79,2.5Z" fill="#548285"/><path d="m74.99,112.36v-6.83c0-1.57-.82-2.11-2.08-2.11-1.17,0-2.08.66-2.57,1.33v7.61h-2.97v-11.31h2.97v1.47c.73-.87,2.11-1.75,3.96-1.75,2.48,0,3.67,1.4,3.67,3.6v7.98h-2.97Z" fill="#548285"/><path d="m89.15,112.36v-1.43c-.89,1.1-2.13,1.71-3.49,1.71-2.86,0-5.01-2.15-5.01-5.92s2.13-5.95,5.01-5.95c1.33,0,2.6.58,3.49,1.73v-1.45h3v11.31h-3Zm0-7.63c-.51-.75-1.57-1.29-2.57-1.29-1.69,0-2.86,1.31-2.86,3.28s1.17,3.28,2.86,3.28c1.01,0,2.06-.54,2.57-1.29v-3.98Z" fill="#548285"/><path d="m95.76,114.11c.26.12.66.19.94.19.77,0,1.29-.21,1.57-.82l.42-.96-4.59-11.47h3.18l2.95,7.87,2.95-7.87h3.21l-5.31,13.16c-.84,2.13-2.34,2.69-4.28,2.74-.35,0-1.1-.07-1.47-.16l.44-2.67Z" fill="#548285"/></g><g><path d="m13.58,133.47v-11.24l-4.4,11.24h-1.45l-4.4-11.24v11.24H0v-15.61h4.66l3.79,9.74,3.79-9.74h4.68v15.61h-3.35Z" fill="#548285"/><path d="m25.68,121.89c3.37,0,5.66,2.53,5.66,6.23v.66h-8.4c.19,1.43,1.33,2.62,3.25,2.62,1.05,0,2.29-.42,3.02-1.12l1.31,1.92c-1.15,1.05-2.9,1.57-4.66,1.57-3.44,0-6.04-2.32-6.04-5.95,0-3.28,2.41-5.92,5.85-5.92Zm-2.79,4.87h5.57c-.07-1.08-.82-2.5-2.79-2.5-1.85,0-2.65,1.38-2.79,2.5Z" fill="#548285"/><path d="m41.8,133.47v-1.43c-.89,1.1-2.13,1.71-3.49,1.71-2.86,0-5.01-2.15-5.01-5.92s2.13-5.95,5.01-5.95c1.33,0,2.6.58,3.49,1.73v-5.76h3v15.61h-3Zm0-7.65c-.51-.75-1.57-1.29-2.57-1.29-1.69,0-2.86,1.33-2.86,3.3s1.17,3.28,2.86,3.28c1.01,0,2.06-.54,2.57-1.29v-4Z" fill="#548285"/><path d="m47.85,118.73c0-.98.82-1.78,1.78-1.78s1.78.8,1.78,1.78-.8,1.78-1.78,1.78-1.78-.8-1.78-1.78Zm.3,14.75v-11.31h2.97v11.31h-2.97Z" fill="#548285"/><path d="m62.31,133.47v-1.43c-.89,1.1-2.13,1.71-3.49,1.71-2.86,0-5.01-2.15-5.01-5.92s2.13-5.95,5.01-5.95c1.33,0,2.6.58,3.49,1.73v-1.45h3v11.31h-3Zm0-7.63c-.51-.75-1.57-1.29-2.57-1.29-1.69,0-2.86,1.31-2.86,3.28s1.17,3.28,2.86,3.28c1.01,0,2.06-.54,2.57-1.29v-3.98Z" fill="#548285"/><path d="m69.43,130.66v-5.9h-1.87v-2.6h1.87v-3.09h3v3.09h2.29v2.6h-2.29v5.1c0,.7.37,1.24,1.03,1.24.44,0,.87-.16,1.03-.33l.63,2.25c-.44.4-1.24.73-2.48.73-2.08,0-3.21-1.08-3.21-3.09Z" fill="#548285"/><path d="m77.02,118.73c0-.98.82-1.78,1.78-1.78s1.78.8,1.78,1.78-.8,1.78-1.78,1.78-1.78-.8-1.78-1.78Zm.3,14.75v-11.31h2.97v11.31h-2.97Z" fill="#548285"/><path d="m82.87,127.81c0-3.21,2.25-5.92,5.97-5.92s5.99,2.71,5.99,5.92-2.25,5.95-5.99,5.95-5.97-2.72-5.97-5.95Zm8.87,0c0-1.76-1.05-3.28-2.9-3.28s-2.88,1.52-2.88,3.28,1.03,3.3,2.88,3.3,2.9-1.52,2.9-3.3Z" fill="#548285"/><path d="m105.13,133.47v-6.83c0-1.57-.82-2.11-2.08-2.11-1.17,0-2.08.66-2.57,1.33v7.61h-2.97v-11.31h2.97v1.47c.73-.87,2.11-1.75,3.96-1.75,2.48,0,3.67,1.4,3.67,3.6v7.98h-2.97Z" fill="#548285"/></g></g></g></g></svg>