<?xml version="1.0" encoding="UTF-8"?><svg id="Layer_2" xmlns="http://www.w3.org/2000/svg" viewBox="0 0 226.08 82.69"><g id="WhiteLogo"><g><g><path d="m115.56,33.45l4.92,5.64c.07.07.09.11.09.18,0,.05-.04.13-.16.13h-2.59c-.16,0-.29-.04-.4-.16l-3.57-4.1-1.58,1.53v2.52c0,.11-.11.22-.22.22h-2.02c-.11,0-.22-.11-.22-.22v-10.37c0-.11.11-.22.22-.22h2.02c.11,0,.22.11.22.22v4.77h.04s.31-.34.68-.7l4.18-4.09c.16-.16.29-.2.47-.2h2.56c.13,0,.16.09.16.13,0,.05-.02.09-.13.2l-4.66,4.54Z" fill="#4a7174"/><path d="m134.94,33.99c0,3.38-2.72,5.58-5.96,5.58s-5.96-2.2-5.96-5.58,2.72-5.58,5.96-5.58,5.96,2.25,5.96,5.58Zm-9.47,0c0,2.18,1.6,3.53,3.51,3.53s3.51-1.35,3.51-3.53-1.6-3.53-3.51-3.53-3.51,1.35-3.51,3.53Z" fill="#4a7174"/><path d="m150.51,33.99c0,3.38-2.72,5.58-5.96,5.58s-5.96-2.2-5.96-5.58,2.72-5.58,5.96-5.58,5.96,2.25,5.96,5.58Zm-9.47,0c0,2.18,1.6,3.53,3.51,3.53s3.51-1.35,3.51-3.53-1.6-3.53-3.51-3.53-3.51,1.35-3.51,3.53Z" fill="#4a7174"/><path d="m153.65,30.65c-.11,0-.25-.14-.25-.25v-1.55c0-.11.14-.25.25-.25h10.23c.11,0,.25.14.25.25v1.55c0,.11-.14.25-.25.25h-3.89v8.53c0,.11-.11.22-.22.22h-2.02c-.11,0-.22-.11-.22-.22v-8.53h-3.89Z" fill="#4a7174"/><path d="m170.24,34.89v2.45h6.34c.11,0,.25.14.25.25v1.55c0,.11-.14.25-.25.25h-8.57c-.11,0-.22-.11-.22-.22v-10.37c0-.11.11-.22.22-.22h8.46c.11,0,.25.14.25.25v1.55c0,.11-.14.25-.25.25h-6.23v2.2h5.69c.11,0,.25.14.25.25v1.55c0,.11-.14.25-.25.25h-5.69Z" fill="#4a7174"/><path d="m190.44,39.4l-5.51-5.62c-.58-.58-1.22-1.39-1.22-1.39h-.05v6.79c0,.11-.11.22-.22.22h-2.02c-.11,0-.22-.11-.22-.22v-10.37c0-.11.11-.22.22-.22h1.66l5.46,5.55c.59.59,1.26,1.46,1.26,1.46h.07v-6.79c0-.11.11-.22.22-.22h2.02c.11,0,.22.11.22.22v10.37c0,.11-.11.22-.22.22h-1.66Z" fill="#4a7174"/><path d="m204.68,37.52h-5.26l-.77,1.64c-.11.22-.16.23-.38.23h-2.14c-.11,0-.14-.07-.14-.13s.04-.14.07-.22l5.08-10.46h1.87l5.08,10.46c.04.07.07.16.07.22s-.04.13-.14.13h-2.14c-.22,0-.27-.02-.38-.23l-.81-1.64Zm-4.39-1.91h3.57l-.97-2c-.38-.77-.76-1.93-.76-1.93h-.11s-.38,1.15-.76,1.93l-.97,2Z" fill="#4a7174"/><path d="m209.27,28.9c-.07-.11-.09-.16-.09-.2,0-.05.04-.11.11-.11h2.29c.22,0,.31.04.43.22l1.85,2.61c.4.54.9,1.46.9,1.46h.07s.49-.88.9-1.46l1.85-2.61c.13-.18.22-.22.43-.22h2.29c.07,0,.11.05.11.11,0,.04-.02.09-.09.2l-4.3,6.18v4.11c0,.11-.11.22-.22.22h-2.02c-.11,0-.22-.11-.22-.22v-4.11l-4.3-6.18Z" fill="#4a7174"/><path d="m123.08,43c.11,0,.23.11.23.23v10.94c0,.11-.11.23-.23.23h-2.13c-.11,0-.23-.11-.23-.23v-6.97h-.06s-.23.57-.7,1.22l-3.36,4.73-3.38-4.73c-.46-.65-.68-1.22-.68-1.22h-.06v6.97c0,.11-.11.23-.23.23h-2.13c-.11,0-.23-.11-.23-.23v-10.94c0-.11.11-.23.23-.23h1.67c.13,0,.27.06.36.19l4.43,6.19h.04l4.43-6.19c.09-.13.23-.19.36-.19h1.67Z" fill="#4a7174"/><path d="m130.56,49.65v2.58h6.69c.11,0,.27.15.27.27v1.63c0,.11-.15.27-.27.27h-9.04c-.11,0-.23-.11-.23-.23v-10.94c0-.11.11-.23.23-.23h8.93c.11,0,.27.15.27.27v1.63c0,.11-.15.27-.27.27h-6.57v2.32h6c.11,0,.27.15.27.27v1.63c0,.11-.15.27-.27.27h-6Z" fill="#4a7174"/><path d="m141.89,54.4c-.11,0-.23-.11-.23-.23v-10.94c0-.11.11-.23.23-.23h4.81c3.61,0,6.31,2.22,6.31,5.7s-2.28,5.7-6.27,5.7h-4.84Zm2.36-9.23v7.07h2.49c2.41,0,3.69-1.37,3.69-3.53s-1.56-3.53-3.72-3.53h-2.45Z" fill="#4a7174"/><path d="m159.61,54.17c0,.11-.11.23-.23.23h-2.13c-.11,0-.23-.11-.23-.23v-10.94c0-.11.11-.23.23-.23h2.13c.11,0,.23.11.23.23v10.94Z" fill="#4a7174"/><path d="m172.15,52.42h-5.55l-.82,1.73c-.11.23-.17.25-.4.25h-2.26c-.11,0-.15-.08-.15-.13s.04-.15.08-.23l5.36-11.04h1.98l5.36,11.04c.04.08.08.17.08.23s-.04.13-.15.13h-2.26c-.23,0-.29-.02-.4-.25l-.86-1.73Zm-4.63-2.01h3.76l-1.03-2.11c-.4-.82-.8-2.03-.8-2.03h-.11s-.4,1.22-.8,2.03l-1.03,2.11Z" fill="#4a7174"/><path d="m176.72,45.16c-.11,0-.27-.15-.27-.27v-1.63c0-.11.15-.27.27-.27h10.79c.11,0,.27.15.27.27v1.63c0,.11-.15.27-.27.27h-4.1v9c0,.11-.11.23-.23.23h-2.13c-.11,0-.23-.11-.23-.23v-9h-4.1Z" fill="#4a7174"/><path d="m193.76,54.17c0,.11-.11.23-.23.23h-2.13c-.11,0-.23-.11-.23-.23v-10.94c0-.11.11-.23.23-.23h2.13c.11,0,.23.11.23.23v10.94Z" fill="#4a7174"/><path d="m210.33,48.7c0,3.57-2.87,5.89-6.29,5.89s-6.29-2.32-6.29-5.89,2.87-5.89,6.29-5.89,6.29,2.37,6.29,5.89Zm-9.99,0c0,2.3,1.69,3.72,3.7,3.72s3.7-1.42,3.7-3.72-1.69-3.72-3.7-3.72-3.7,1.42-3.7,3.72Z" fill="#4a7174"/><path d="m224.1,54.4l-5.81-5.93c-.61-.61-1.29-1.46-1.29-1.46h-.06v7.16c0,.11-.11.23-.23.23h-2.13c-.11,0-.23-.11-.23-.23v-10.94c0-.11.11-.23.23-.23h1.75l5.76,5.85c.63.63,1.33,1.54,1.33,1.54h.08v-7.16c0-.11.11-.23.23-.23h2.13c.11,0,.23.11.23.23v10.94c0,.11-.11.23-.23.23h-1.75Z" fill="#4a7174"/></g><g id="LEaves"><g><path d="m51.31,54.86s6.88,2.3,5.91,10.52c0,0-7.59-3.15-5.91-10.52Z" fill="#90b9a6"/><path d="m66.84,36.78s1.52,7.09-6.05,10.44c0,0-1.15-8.13,6.05-10.44Z" fill="#90b9a6"/><path d="m66.53,14s1.86,7.01-5.53,10.72c0,0-1.54-8.07,5.53-10.72Z" fill="#90b9a6"/><path d="m41.23,22.14s-1.14,7.16-9.4,7.56c0,0,1.86-8,9.4-7.56Z" fill="#90b9a6"/><path d="m43.77,34.56s7.12,1.39,7.22,9.67c0,0-7.93-2.14-7.22-9.67Z" fill="#90b9a6"/><path d="m49.93,21.32s7.24.48,8.38,8.68c0,0-8.14-1.12-8.38-8.68Z" fill="#90b9a6"/><path d="m47.87,11.62s2.66,6.75-4.25,11.29c0,0-2.47-7.83,4.25-11.29Z" fill="#90b9a6"/><path d="m27.19,16.24s1.98,6.98-5.36,10.81c0,0-1.68-8.04,5.36-10.81Z" fill="#90b9a6"/><path d="m68.05,30.5s4.7-5.53,11.96-1.57c0,0-5.75,5.87-11.96,1.57Z" fill="#90b9a6"/><path d="m36.65,54s-6.88,2.3-5.91,10.52c0,0,7.59-3.15,5.91-10.52Z" fill="#90b9a6"/><path d="m20.58,37.4s-1.52,7.09,6.05,10.44c0,0,1.15-8.13-6.05-10.44Z" fill="#90b9a6"/><path d="m19.75,29.15s-5.72-4.45-12.03.91c0,0,6.82,4.57,12.03-.91Z" fill="#90b9a6"/><path d="m0,45.1s.34,7.24,8.51,8.56c0,0-.96-8.16-8.51-8.56Z" fill="#90b9a6"/><path d="m89.19,45.63s-7.24.34-8.56,8.51c0,0,8.16-.96,8.56-8.51Z" fill="#90b9a6"/></g></g><g id="Olives"><g><ellipse cx="64.52" cy="55.65" rx="3.49" ry="2.51" transform="translate(-15.93 83.7) rotate(-60)" fill="#b0ab84"/><ellipse cx="74.62" cy="37.6" rx="3.49" ry="2.51" transform="translate(4.75 83.42) rotate(-60)" fill="#b0ab84"/><ellipse cx="22.34" cy="55.86" rx="2.51" ry="3.49" transform="translate(-24.94 18.65) rotate(-30)" fill="#b0ab84"/><ellipse cx="24.55" cy="8.59" rx="3.49" ry="2.51" transform="translate(7.85 28.53) rotate(-69.35)" fill="#b0ab84"/><ellipse cx="47.07" cy="28.99" rx="2.51" ry="3.49" transform="translate(-7.6 20.8) rotate(-23.11)" fill="#b0ab84"/><ellipse cx="81.36" cy="22.88" rx="2.29" ry="3.19" transform="translate(1.78 51.33) rotate(-35.38)" fill="#b0ab84"/><ellipse cx="66.49" cy="7.58" rx="2.29" ry="3.19" transform="translate(7.89 39.9) rotate(-35.38)" fill="#b0ab84"/><ellipse cx="47.49" cy="2.3" rx="3.19" ry="2.29" transform="translate(-.04 3.57) rotate(-4.31)" fill="#b0ab84"/><ellipse cx="13.5" cy="37.84" rx="2.51" ry="3.49" transform="translate(-17.11 11.82) rotate(-30)" fill="#b0ab84"/><ellipse cx="7.57" cy="22.07" rx="3.19" ry="2.29" transform="translate(-14.8 15.47) rotate(-54.62)" fill="#b0ab84"/></g></g><g id="Branches"><path d="m65.68,81.19c-11.56,0-20.93-9.37-20.93-20.93,0-4.29,1.29-8.28,3.5-11.6,3.75-5.63,25.81-17.32,25.56-39.15" fill="none" stroke="#4a7174" stroke-miterlimit="10" stroke-width="3"/><path d="m44.73,61.57c1.58-3.95,4.37-7.45,8.24-9.89,9.77-6.18,22.7-3.27,28.88,6.5" fill="none" stroke="#4a7174" stroke-miterlimit="10" stroke-width="3"/><path d="m53.27,43.72c8.34-8,8.62-21.25.61-29.6-3.17-3.3-7.16-5.34-11.34-6.1-3.2-.45-5.19-.47-7.9-.45" fill="none" stroke="#4a7174" stroke-miterlimit="10" stroke-width="3"/><path d="m85.92,33.8c-2.78,8.95-11.02,14.69-19.93,14.72" fill="none" stroke="#4a7174" stroke-miterlimit="10" stroke-width="3"/><path d="m23.24,81.19c11.56,0,20.93-9.37,20.93-20.93,0-4.29-1.29-8.28-3.5-11.6-3.75-5.63-25.81-17.32-25.56-39.15" fill="none" stroke="#4a7174" stroke-miterlimit="10" stroke-width="3"/><path d="m44.18,61.57c-1.58-3.95-4.37-7.45-8.24-9.89-9.77-6.18-22.7-3.27-28.88,6.5" fill="none" stroke="#4a7174" stroke-miterlimit="10" stroke-width="3"/><path d="m2.99,33.8c2.78,8.95,11.02,14.69,19.93,14.72" fill="none" stroke="#4a7174" stroke-miterlimit="10" stroke-width="3"/><path d="m35.06,17.06c-7.12,9.11-5.5,22.27,3.61,29.38" fill="none" stroke="#4a7174" stroke-miterlimit="10" stroke-width="3"/><path d="m57.93,20.12c-1.38-4.91-.94-10.24,1.35-14.9" fill="none" stroke="#4a7174" stroke-miterlimit="10" stroke-width="3"/><path d="m40.28,48.14c-4.42-5.24-3.76-13.06,1.48-17.48" fill="none" stroke="#4a7174" stroke-miterlimit="10" stroke-width="3"/></g></g></g></svg>