<?xml version="1.0" encoding="utf-8"?>
<!-- Generator: Adobe Illustrator 27.2.0, SVG Export Plug-In . SVG Version: 6.00 Build 0)  -->
<svg version="1.1" xmlns="http://www.w3.org/2000/svg" xmlns:xlink="http://www.w3.org/1999/xlink" x="0px" y="0px"
	 viewBox="0 0 144 144" style="enable-background:new 0 0 144 144;" xml:space="preserve">
<style type="text/css">
	.st0{fill:#EAF2EF;}
	.st1{fill:#90B9A6;}
	.st2{fill:#B0AB84;}
	.st3{fill:none;stroke:#548285;stroke-width:3;stroke-miterlimit:10;}
</style>
<g id="Layer_3">
	<circle class="st0" cx="72" cy="72" r="70"/>
</g>
<g id="Layer_2_00000137823025430378738510000005227495665826907531_">
	<g id="Tree_3_Color_copy">
		<g id="Layer_6">
			<g id="LEaves">
				<g>
					<path class="st1" d="M78.2,85.8c0,0,6.9,2.3,5.9,10.5C84.1,96.3,76.5,93.1,78.2,85.8z"/>
					<path class="st1" d="M94.5,69.2c0,0,1.5,7.1-6,10.4C88.4,79.6,87.3,71.5,94.5,69.2z"/>
					<path class="st1" d="M93.7,46.7c0,0,1.9,7-5.5,10.7C88.1,57.4,86.6,49.3,93.7,46.7z"/>
					<path class="st1" d="M68.1,54c0,0-1.1,7.2-9.4,7.6C58.7,61.6,60.6,53.6,68.1,54z"/>
					<path class="st1" d="M71.4,66.5c0,0,7.1,1.4,7.2,9.7C78.6,76.1,70.7,74,71.4,66.5z"/>
					<path class="st1" d="M77.8,53.5c0,0,7.2,0.5,8.4,8.7C86.2,62.2,78.1,61,77.8,53.5z"/>
					<path class="st1" d="M75.8,42.5c0,0,2.7,6.8-4.2,11.3C71.5,53.8,69,46,75.8,42.5z"/>
					<path class="st1" d="M53,50.4c0,0,4.1,6-1.6,12C51.3,62.3,47.2,55.2,53,50.4z"/>
					<path class="st1" d="M95.7,62.4c0,0,4.7-5.5,12-1.6C107.7,60.8,101.9,66.7,95.7,62.4z"/>
					<path class="st1" d="M64.3,85.6c0,0-6.9,2.3-5.9,10.5C58.4,96.2,66,93,64.3,85.6z"/>
					<path class="st1" d="M48.2,69.3c0,0-1.5,7.1,6,10.4C54.3,79.7,55.4,71.6,48.2,69.3z"/>
					<path class="st1" d="M48.6,62.3c0,0-4.7-5.5-12-1.6C36.7,60.7,42.4,66.6,48.6,62.3z"/>
					<path class="st1" d="M29.2,76.5c0,0,0.3,7.2,8.5,8.6C37.7,85,36.7,76.9,29.2,76.5z"/>
					<path class="st1" d="M114.8,76.2c0,0-7.2,0.3-8.6,8.5C106.3,84.7,114.4,83.8,114.8,76.2z"/>
				</g>
			</g>
			<g id="Olives">
				<g>
					<ellipse transform="matrix(0.5 -0.866 0.866 0.5 -29.7442 123.6005)" class="st2" cx="92.2" cy="87.6" rx="3.5" ry="2.5"/>
					<ellipse transform="matrix(0.5 -0.866 0.866 0.5 -9.0617 123.3198)" class="st2" cx="102.3" cy="69.5" rx="3.5" ry="2.5"/>
					<ellipse transform="matrix(0.866 -0.5 0.5 0.866 -37.1882 36.7518)" class="st2" cx="50" cy="87.8" rx="2.5" ry="3.5"/>
					
						<ellipse transform="matrix(0.3527 -0.9358 0.9358 0.3527 -2.7428 75.5174)" class="st2" cx="53.2" cy="39.7" rx="3.5" ry="2.5"/>
					
						<ellipse transform="matrix(0.9198 -0.3925 0.3925 0.9198 -17.9107 34.2113)" class="st2" cx="74.7" cy="60.9" rx="2.5" ry="3.5"/>
					
						<ellipse transform="matrix(0.8153 -0.579 0.579 0.8153 -11.2857 72.1697)" class="st2" cx="107.5" cy="53.8" rx="2.3" ry="3.2"/>
					<ellipse transform="matrix(0.8153 -0.579 0.579 0.8153 -5.5162 61.6489)" class="st2" cx="93.9" cy="39.5" rx="2.3" ry="3.2"/>
					
						<ellipse transform="matrix(0.9972 -7.515277e-02 7.515277e-02 0.9972 -2.2895 5.5515)" class="st2" cx="72.6" cy="33.2" rx="3.2" ry="2.3"/>
					<ellipse transform="matrix(0.866 -0.5 0.5 0.866 -29.359 29.9189)" class="st2" cx="41.1" cy="69.7" rx="2.5" ry="3.5"/>
					<ellipse transform="matrix(0.579 -0.8153 0.8153 0.579 -27.6074 52.4578)" class="st2" cx="37" cy="53" rx="3.2" ry="2.3"/>
				</g>
			</g>
			<g id="Branches">
				<g>
					<path class="st3" d="M93.3,113.1c-11.6,0-20.9-9.4-20.9-20.9c0-4.3,1.3-8.3,3.5-11.6c3.8-5.6,25.8-17.3,25.6-39.2"/>
					<path class="st3" d="M72.4,93.5c1.6-4,4.4-7.5,8.2-9.9c9.8-6.2,22.7-3.3,28.9,6.5"/>
					<path class="st3" d="M80.9,75.6c8.3-8,8.6-21.2,0.6-29.6c-3.2-3.3-7.2-5.3-11.3-6.1c-3.2-0.5-5.2-0.5-7.9-0.5"/>
					<path class="st3" d="M113.6,65.7c-2.8,9-11,14.7-19.9,14.7"/>
					<path class="st3" d="M50.9,113.1c11.6,0,20.9-9.4,20.9-20.9c0-4.3-1.3-8.3-3.5-11.6c-3.8-5.6-25.8-17.3-25.6-39.2"/>
					<path class="st3" d="M71.8,93.5c-1.6-4-4.4-7.5-8.2-9.9c-9.8-6.2-22.7-3.3-28.9,6.5"/>
					<path class="st3" d="M30.6,65.7c2.8,9,11,14.7,19.9,14.7"/>
					<path class="st3" d="M62.7,49c-7.1,9.1-5.5,22.3,3.6,29.4"/>
					<path class="st3" d="M85.6,52c-1.4-4.9-0.9-10.2,1.3-14.9"/>
					<path class="st3" d="M67.9,80c-4.4-5.2-3.8-13.1,1.5-17.5"/>
				</g>
			</g>
		</g>
	</g>
</g>
</svg>
