<?xml version="1.0" standalone="no"?>
<!DOCTYPE svg PUBLIC "-//W3C//DTD SVG 20010904//EN"
 "http://www.w3.org/TR/2001/REC-SVG-20010904/DTD/svg10.dtd">
<svg version="1.0" xmlns="http://www.w3.org/2000/svg"
 width="688.000000pt" height="688.000000pt" viewBox="0 0 688.000000 688.000000"
 preserveAspectRatio="xMidYMid meet">
<metadata>
Created by potrace 1.14, written by Peter Selinger 2001-2017
</metadata>
<g transform="translate(0.000000,688.000000) scale(0.100000,-0.100000)"
fill="#000000" stroke="none">
<path d="M3390 6774 c-103 -37 -160 -101 -160 -181 0 -54 39 -107 103 -140 42
-21 66 -26 127 -26 92 -1 144 13 199 54 95 68 101 196 13 255 -75 52 -198 68
-282 38z"/>
<path d="M1895 6334 c-50 -28 -78 -53 -112 -101 -120 -169 -73 -403 85 -420
68 -7 140 31 192 102 62 86 80 141 76 238 -4 73 -23 121 -64 160 -38 37 -129
47 -177 21z"/>
<path d="M4511 6322 c-11 -20 -72 -171 -76 -187 -1 -5 -5 -17 -8 -25 -16 -43
-36 -115 -42 -157 -2 -11 -6 -29 -9 -40 -12 -40 -23 -119 -31 -223 -3 -41 -7
-75 -8 -77 -2 -1 -43 37 -93 85 -99 95 -122 115 -174 152 -19 13 -37 27 -40
30 -16 18 -170 109 -265 155 -152 73 -258 108 -459 150 -10 3 -44 7 -75 10
-31 4 -72 8 -91 10 -108 12 -376 21 -465 16 -20 -1 -21 -7 -20 -120 l0 -118
105 -1 c238 -2 408 -16 575 -48 65 -13 205 -60 283 -96 l46 -20 -29 -21 c-138
-96 -250 -293 -270 -474 -14 -124 10 -363 35 -363 13 0 118 87 169 139 78 81
148 203 182 316 21 68 29 223 17 308 -3 20 -3 37 1 37 10 0 164 -104 203 -136
122 -104 273 -278 343 -395 67 -113 141 -282 171 -389 18 -65 44 -210 49 -271
3 -41 8 -84 11 -96 6 -32 -12 -29 -21 4 -13 55 -81 177 -133 239 -97 118 -246
209 -407 250 -5 1 -27 5 -48 9 l-38 6 5 -53 c13 -113 32 -174 83 -266 92 -166
285 -303 510 -362 l42 -11 -4 -42 c-9 -89 -41 -240 -65 -307 -72 -204 -176
-395 -281 -517 -71 -82 -210 -214 -219 -208 -6 4 -10 18 -10 33 0 68 -44 240
-64 254 -6 4 -8 8 -3 8 23 0 -83 160 -151 228 -88 86 -231 170 -328 192 l-31
7 2 -81 c5 -157 36 -258 116 -371 43 -63 158 -175 178 -175 6 0 11 -4 11 -8 0
-11 153 -96 202 -113 l38 -13 -103 -101 c-130 -128 -154 -156 -202 -235 -22
-36 -42 -67 -45 -70 -10 -9 -83 -165 -111 -235 -22 -56 -29 -66 -35 -50 -29
81 -51 130 -97 217 -55 105 -60 115 -92 163 -19 30 -85 116 -96 125 -3 3 -9
12 -13 20 -4 8 -12 24 -19 35 -40 65 -52 92 -83 185 -48 142 -51 344 -9 495 8
28 15 55 17 60 6 27 73 154 107 204 21 31 65 82 96 114 52 52 56 59 43 75 -8
9 -28 33 -44 52 -16 19 -45 52 -65 74 l-36 39 -54 -55 c-123 -125 -186 -219
-247 -364 -64 -152 -86 -261 -86 -432 l-1 -103 -22 27 c-12 15 -27 39 -35 53
-7 14 -16 28 -19 31 -8 6 -79 148 -107 210 -28 65 -71 204 -86 280 -3 14 -7
35 -10 48 -19 88 -28 292 -12 297 6 1 50 12 97 23 257 60 454 244 543 506 24
71 20 75 -66 70 -214 -13 -417 -130 -531 -307 -10 -16 -21 -27 -23 -24 -9 8
36 167 73 261 49 125 86 196 152 296 31 47 59 90 63 97 5 7 -24 37 -81 82 -49
39 -93 71 -97 71 -31 0 -246 -380 -265 -468 -1 -4 -10 -29 -20 -55 -34 -86
-69 -243 -86 -382 -9 -70 -9 -308 0 -380 17 -148 31 -220 66 -334 l10 -33 -21
18 c-77 67 -298 303 -386 412 -18 22 -44 53 -58 69 -13 15 -24 33 -24 38 1 6
22 38 48 72 55 72 101 158 128 238 41 120 41 323 0 448 -14 43 -38 101 -53
128 l-27 50 -43 -43 c-76 -74 -160 -216 -179 -303 -17 -78 -21 -113 -19 -191
3 -105 10 -160 29 -214 8 -22 12 -40 10 -40 -9 0 -120 178 -180 287 -99 180
-203 436 -239 593 -34 146 -37 163 -50 255 -3 22 -8 54 -11 70 -2 17 -7 89
-11 160 -3 72 -9 132 -14 135 -5 4 -57 6 -116 5 l-108 0 0 -113 c-1 -149 18
-303 60 -499 18 -84 71 -264 92 -313 3 -8 7 -20 8 -25 4 -16 86 -206 108 -250
11 -22 20 -42 20 -45 0 -3 16 -31 34 -62 18 -31 33 -61 33 -67 0 -6 5 -11 10
-11 6 0 10 -6 10 -14 0 -7 7 -19 15 -26 8 -6 13 -15 12 -19 -1 -4 6 -19 15
-32 10 -13 29 -41 43 -62 l25 -37 -73 39 c-99 54 -181 83 -277 98 -38 5 -199
5 -208 -1 -5 -3 -22 -8 -38 -10 -71 -13 -68 -12 -241 -83 -7 -3 -13 -10 -13
-17 0 -11 146 -124 165 -127 6 -1 22 -9 36 -20 35 -25 149 -70 214 -85 58 -13
87 -16 155 -16 41 1 87 5 102 11 14 5 28 8 31 5 7 -7 149 46 179 67 14 11 31
19 36 19 6 0 39 -37 73 -82 159 -211 391 -460 639 -688 50 -47 102 -94 114
-105 11 -11 50 -45 86 -75 35 -30 74 -64 85 -75 12 -11 44 -39 71 -62 250
-212 454 -414 463 -458 1 -5 8 -17 16 -25 32 -37 155 -313 155 -349 0 -4 -49
40 -108 98 -199 195 -405 321 -697 427 -11 4 -23 8 -27 9 -5 2 -9 3 -10 5 -2
1 -10 3 -18 5 -8 1 -42 10 -75 18 -58 15 -108 25 -170 33 -61 8 -99 15 -102
18 -2 1 -5 38 -8 82 -10 151 -30 229 -92 353 -65 131 -155 220 -288 286 -68
34 -99 45 -107 37 -17 -17 -13 -178 7 -272 2 -14 7 -35 9 -47 10 -49 67 -167
109 -226 47 -65 139 -156 190 -187 18 -11 24 -19 15 -22 -7 -3 -85 -4 -173 -3
-176 3 -293 22 -452 75 -161 53 -352 155 -480 256 -62 49 -219 207 -257 259
-17 22 -33 42 -37 45 -14 11 -138 227 -144 253 -4 15 -11 27 -16 27 -5 0 -9 6
-9 13 0 8 -7 28 -16 46 -9 17 -17 37 -18 44 -9 42 -19 67 -28 67 -6 0 -57 -14
-114 -32 -77 -23 -104 -36 -104 -48 0 -46 120 -305 196 -423 92 -143 258 -328
384 -430 101 -81 343 -227 377 -227 7 0 13 -4 13 -10 0 -5 6 -10 13 -10 7 0
31 -8 53 -18 21 -10 50 -23 64 -29 23 -9 20 -12 -55 -49 -44 -21 -81 -42 -83
-46 -2 -5 -8 -8 -14 -8 -6 0 -30 -13 -55 -30 -24 -16 -46 -30 -48 -30 -3 0
-13 -6 -22 -14 -10 -8 -49 -39 -88 -70 l-70 -55 -16 57 c-91 321 -319 543
-584 568 -27 3 -56 7 -63 9 -16 6 -11 -41 13 -130 72 -268 294 -476 577 -539
l28 -6 -52 -53 c-28 -28 -76 -83 -107 -122 -31 -38 -59 -71 -63 -73 -5 -2 -8
-10 -8 -18 0 -8 -3 -14 -8 -14 -9 0 -47 -68 -41 -74 2 -2 46 -31 98 -64 l94
-61 72 98 c75 100 236 267 267 277 10 3 18 9 18 13 0 9 142 106 214 145 120
67 337 145 447 161 24 4 46 8 50 10 11 8 164 19 254 19 124 0 261 -16 390 -48
129 -31 343 -127 463 -208 l75 -50 -34 -21 c-148 -88 -216 -147 -286 -245 -39
-54 -120 -222 -108 -222 3 0 0 -12 -5 -26 -6 -14 -13 -49 -17 -77 -8 -62 -8
-235 0 -244 4 -3 32 9 64 27 283 160 439 406 427 673 -2 34 -6 72 -9 85 -3 12
-2 22 3 22 11 0 189 -174 235 -230 67 -81 134 -184 182 -278 45 -89 47 -95 42
-160 -3 -37 -13 -101 -22 -142 -9 -41 -18 -82 -20 -90 -15 -70 -92 -253 -152
-365 -23 -43 -113 -174 -148 -215 -58 -69 -202 -207 -260 -250 -33 -24 -61
-47 -63 -52 -2 -4 -8 -8 -13 -8 -5 0 -32 -15 -61 -34 -105 -66 -326 -159 -430
-180 -16 -3 -40 -8 -55 -11 -16 -3 -35 -8 -44 -11 -28 -8 -156 -20 -255 -23
-20 -1 -21 -6 -23 -122 l-1 -121 107 6 c60 3 119 8 133 10 14 3 39 8 55 11 17
3 46 8 65 11 19 3 43 7 52 10 9 3 25 7 35 9 55 11 240 78 318 116 98 47 238
128 243 141 2 4 10 8 17 8 7 0 15 3 17 8 2 4 28 26 59 48 84 63 215 190 286
278 71 87 173 238 173 254 0 6 4 12 8 14 10 4 99 189 108 223 3 14 10 28 15
31 5 3 7 10 4 15 -4 5 -2 9 3 9 5 0 24 -37 41 -83 18 -45 50 -113 72 -152 21
-38 45 -82 51 -97 7 -16 16 -28 20 -28 4 0 8 -7 8 -15 0 -8 4 -15 8 -15 4 0
21 -22 37 -50 17 -27 33 -50 36 -50 4 0 18 -17 31 -37 56 -84 210 -227 389
-363 69 -51 326 -183 379 -194 3 -1 10 -4 15 -8 9 -5 79 -27 110 -34 6 -1 35
-9 65 -18 30 -8 71 -18 90 -21 19 -3 46 -8 60 -10 47 -10 95 -15 195 -21 l100
-6 -1 116 c-1 64 -3 119 -6 121 -2 3 -45 7 -94 11 -98 6 -109 7 -174 19 -72
12 -73 12 -120 26 -25 7 -47 13 -50 14 -39 9 -152 50 -156 56 -3 5 -14 9 -25
9 -10 0 -19 4 -19 8 0 4 -17 14 -37 21 -42 16 -158 82 -220 128 -349 253 -582
630 -639 1038 -17 117 -18 113 36 219 28 56 79 141 114 190 61 85 144 181 151
174 2 -2 6 -28 8 -58 9 -96 44 -198 98 -289 50 -85 187 -214 295 -279 48 -28
91 -49 95 -46 10 6 5 255 -5 294 -4 14 -8 30 -10 35 -37 153 -146 311 -280
406 -41 30 -75 56 -75 59 0 19 299 205 349 217 14 3 32 11 40 18 8 7 26 15 40
18 14 3 52 15 85 26 65 23 69 25 170 46 419 87 890 -18 1230 -274 111 -85 226
-194 280 -266 17 -22 33 -42 36 -45 4 -3 22 -29 41 -57 l35 -53 89 56 c49 31
95 62 102 68 10 10 -2 32 -62 112 -41 54 -111 137 -155 184 -72 75 -78 85 -59
88 13 2 30 6 38 9 8 3 22 7 30 9 8 2 44 15 79 29 272 107 449 336 465 600 1
25 -24 23 -134 -7 -131 -36 -228 -93 -331 -197 -84 -85 -140 -180 -182 -309
l-33 -102 -30 25 c-53 47 -227 160 -316 204 -100 51 -105 40 42 101 263 109
532 319 710 556 33 43 63 84 68 89 11 13 117 198 118 205 0 3 13 32 28 65 43
94 76 189 68 197 -11 11 -172 60 -201 62 -19 1 -26 -7 -37 -39 -19 -56 -24
-67 -79 -180 -149 -309 -399 -556 -720 -710 -96 -46 -197 -85 -261 -100 -47
-11 -152 -34 -189 -41 -22 -4 -147 -8 -277 -9 l-237 -1 47 32 c56 38 135 113
179 169 56 72 114 198 129 280 2 11 7 40 12 65 9 50 8 202 -2 218 -7 13 -51
-3 -136 -48 -56 -30 -220 -174 -220 -193 0 -3 -15 -32 -34 -64 -32 -54 -73
-166 -82 -223 -10 -64 -16 -127 -18 -186 -1 -34 -4 -65 -6 -68 -3 -2 -25 -7
-50 -11 -59 -8 -175 -40 -263 -70 -261 -91 -497 -242 -694 -444 -46 -46 -83
-81 -83 -78 0 15 65 184 87 225 14 26 37 70 51 97 63 121 161 228 392 425 35
30 72 63 82 73 10 9 20 17 22 17 2 0 20 15 38 33 19 17 48 43 64 56 27 23 130
113 234 206 58 52 362 356 420 420 52 57 140 162 185 219 17 21 36 45 43 52 6
7 12 17 12 23 0 6 4 11 9 11 5 0 19 16 31 35 25 41 32 42 71 14 16 -11 65 -33
108 -49 217 -79 445 -41 666 111 94 65 127 94 118 103 -18 18 -185 83 -233 91
-14 2 -38 7 -55 11 -60 13 -259 5 -286 -11 -5 -4 -22 -8 -37 -11 -25 -4 -55
-16 -122 -47 -14 -6 -54 -31 -89 -55 l-64 -44 30 44 c56 80 183 299 180 308
-1 3 8 21 20 40 76 126 203 492 237 685 3 17 8 41 11 55 3 14 8 45 11 70 3 25
7 56 10 70 7 40 17 199 18 275 l1 70 -113 0 c-66 0 -116 -4 -120 -10 -4 -5 -7
-35 -8 -65 -3 -94 -14 -237 -18 -251 -3 -8 -7 -34 -10 -59 -7 -64 -15 -107
-33 -175 -8 -33 -16 -67 -18 -76 -27 -136 -174 -489 -270 -648 -61 -100 -146
-233 -155 -241 -3 -3 -30 -39 -60 -80 -30 -41 -57 -77 -60 -80 -3 -3 -23 -27
-45 -55 -45 -57 -183 -212 -255 -287 l-49 -51 16 59 c19 74 23 89 34 144 31
145 40 359 24 537 l-7 82 33 20 c146 86 271 225 327 365 14 33 26 67 27 75 2
9 4 16 5 16 10 0 27 161 25 234 -2 98 -11 124 -37 118 -37 -10 -165 -89 -207
-128 -85 -80 -175 -232 -195 -329 -3 -14 -7 -34 -9 -45 -3 -11 -8 -40 -12 -65
-8 -45 -8 -45 -17 -15 -5 17 -11 37 -13 45 -2 8 -18 51 -35 95 -18 44 -33 89
-35 100 -1 11 -8 41 -14 67 -21 90 -26 155 -25 328 1 161 7 212 39 355 17 78
68 220 106 296 7 13 -11 26 -96 68 -57 28 -107 51 -109 51 -3 0 -10 -8 -15
-18z"/>
<path d="M5073 6328 c-33 -9 -75 -55 -87 -95 -25 -81 12 -199 85 -274 56 -57
103 -81 174 -86 168 -13 205 219 59 374 -68 71 -154 102 -231 81z"/>
<path d="M650 5252 c-85 -27 -158 -90 -201 -174 -53 -102 -36 -223 36 -268 98
-61 251 15 322 160 39 79 39 172 0 223 -15 20 -36 41 -47 47 -22 12 -88 19
-110 12z"/>
<path d="M6131 5163 c-61 -48 -77 -114 -51 -210 42 -153 205 -265 318 -217
121 50 120 230 -2 362 -53 58 -108 85 -177 87 -47 2 -62 -2 -88 -22z"/>
<path d="M3582 4650 c-55 -8 -92 -36 -119 -91 -85 -168 56 -438 230 -441 57
-1 90 14 123 56 84 105 58 284 -58 399 -63 62 -115 85 -176 77z"/>
<path d="M5870 3950 c-62 -17 -170 -104 -170 -137 0 -7 -4 -13 -9 -13 -15 0
-52 -114 -53 -165 -2 -105 36 -170 112 -193 117 -37 260 65 315 225 38 109 8
230 -66 268 -36 19 -92 25 -129 15z"/>
<path d="M850 3932 c-110 -38 -144 -194 -73 -335 100 -200 320 -245 389 -82
43 102 -5 262 -105 353 -57 52 -159 83 -211 64z"/>
<path d="M5045 2498 c-117 -41 -216 -187 -216 -320 -2 -249 281 -255 406 -8
100 197 -12 390 -190 328z"/>
<path d="M1542 2479 c-97 -38 -124 -196 -57 -329 58 -114 157 -183 256 -179
48 3 58 7 95 45 48 47 61 95 51 185 -11 103 -100 229 -192 270 -43 20 -115 24
-153 8z"/>
</g>
</svg>
