<?xml version="1.0" standalone="no"?>
<!DOCTYPE svg PUBLIC "-//W3C//DTD SVG 20010904//EN"
 "http://www.w3.org/TR/2001/REC-SVG-20010904/DTD/svg10.dtd">
<svg version="1.0" xmlns="http://www.w3.org/2000/svg"
 width="700.000000pt" height="700.000000pt" viewBox="0 0 700.000000 700.000000"
 preserveAspectRatio="xMidYMid meet">
<metadata>
Created by potrace 1.14, written by Peter Selinger 2001-2017
</metadata>
<g transform="translate(0.000000,700.000000) scale(0.100000,-0.100000)"
fill="#000000" stroke="none">
<path d="M3481 5488 c-51 -14 -82 -38 -97 -75 -28 -66 24 -124 116 -131 76 -6
102 1 145 39 45 40 49 92 9 133 -42 41 -105 54 -173 34z"/>
<path d="M2534 5198 c-127 -111 -77 -341 61 -284 91 38 144 180 100 266 -31
61 -103 69 -161 18z"/>
<path d="M4134 5174 c-34 -76 -72 -227 -80 -317 l-7 -75 -49 49 c-160 160
-394 278 -613 309 -44 6 -142 14 -217 17 l-138 6 0 -76 0 -77 88 0 c174 0 316
-23 444 -72 l76 -29 -54 -51 c-34 -32 -67 -76 -87 -117 -31 -64 -32 -69 -32
-198 0 -84 4 -136 11 -143 15 -15 106 59 150 123 56 82 77 150 78 254 1 51 3
93 5 93 12 0 135 -97 183 -143 151 -149 252 -364 273 -582 l7 -70 -36 71 c-40
79 -125 168 -194 203 -40 21 -152 54 -159 48 -2 -2 1 -28 7 -57 30 -158 138
-276 307 -335 l67 -24 -3 -42 c-13 -179 -124 -401 -285 -567 l-50 -52 -18 79
c-22 106 -60 179 -126 246 -54 54 -157 115 -195 115 -19 0 -19 -5 -14 -71 12
-146 108 -277 254 -349 l71 -35 -82 -85 c-85 -87 -150 -186 -188 -286 -20 -53
-23 -55 -32 -33 -31 77 -95 193 -151 275 -69 102 -98 177 -110 284 -14 131 41
291 135 394 l50 54 -47 57 -48 58 -62 -68 c-108 -116 -172 -275 -176 -435 -2
-78 -2 -79 -19 -57 -36 45 -108 204 -128 282 -12 44 -24 121 -27 172 l-6 92
29 6 c183 41 312 153 360 311 l14 46 -68 -4 c-97 -6 -176 -44 -252 -123 -33
-35 -60 -57 -60 -48 0 51 79 234 139 323 17 25 31 48 31 52 0 7 -99 88 -109
88 -13 0 -92 -128 -131 -213 -23 -48 -53 -132 -68 -185 -24 -88 -26 -113 -26
-272 1 -143 5 -190 21 -254 l21 -78 -60 58 c-66 66 -196 213 -217 248 -12 20
-10 27 27 80 63 90 85 168 80 284 -3 80 -9 108 -33 161 l-29 64 -45 -49 c-66
-73 -94 -142 -99 -244 -2 -47 1 -105 7 -130 5 -24 8 -46 7 -48 -7 -7 -97 146
-145 248 -88 185 -134 362 -147 558 l-7 102 -75 0 -75 0 7 -107 c17 -265 107
-551 244 -773 22 -36 38 -67 37 -69 -2 -2 -19 6 -37 17 -103 62 -251 73 -377
29 -40 -14 -76 -29 -80 -32 -19 -21 151 -123 243 -146 68 -17 190 -7 251 22
28 12 53 23 56 23 3 1 43 -46 89 -104 99 -124 307 -334 475 -480 66 -58 172
-153 237 -212 110 -102 119 -114 167 -211 77 -157 76 -164 -13 -79 -164 156
-395 268 -594 288 l-62 7 0 41 c0 64 -26 168 -55 226 -35 70 -107 140 -177
173 -31 15 -60 27 -64 27 -4 0 -4 -42 -1 -92 8 -147 63 -257 167 -336 l45 -35
-135 6 c-154 5 -259 31 -383 93 -137 69 -272 185 -354 305 -37 53 -96 170
-113 222 -6 21 -17 36 -24 34 -6 -2 -37 -13 -68 -23 -32 -10 -58 -22 -58 -27
0 -5 12 -39 26 -75 105 -266 344 -507 597 -603 l58 -22 -58 -31 c-70 -38 -174
-108 -192 -130 -20 -24 -28 -20 -35 18 -11 59 -75 174 -126 226 -30 31 -75 62
-112 80 -65 30 -158 49 -158 33 0 -29 35 -135 57 -173 58 -97 157 -178 258
-210 59 -19 59 -18 18 -63 -50 -54 -123 -151 -123 -163 0 -5 26 -26 58 -47
l57 -37 20 26 c140 188 308 311 507 373 255 78 567 35 781 -108 l58 -38 -53
-30 c-72 -41 -143 -120 -181 -201 -28 -59 -32 -80 -35 -171 l-4 -104 53 29
c73 40 170 137 202 204 33 67 51 159 42 211 -4 23 -3 39 3 39 5 0 45 -38 88
-83 85 -90 172 -225 181 -281 7 -46 -21 -181 -58 -275 -62 -156 -191 -321
-324 -416 -134 -95 -308 -160 -465 -173 l-85 -7 -3 -72 -3 -73 54 0 c140 0
358 63 491 141 200 118 358 291 451 493 19 41 35 81 35 88 0 7 15 -21 34 -63
148 -339 454 -581 815 -644 46 -8 108 -15 138 -15 l54 0 -3 72 -3 73 -85 7
c-397 33 -736 327 -830 720 -31 129 -28 151 31 250 29 48 71 108 94 135 l42
48 7 -56 c16 -124 119 -265 244 -332 l52 -28 0 73 c0 167 -66 295 -203 393
l-27 20 77 52 c340 230 789 212 1112 -43 70 -55 130 -119 196 -208 l20 -26 57
37 c32 21 58 42 58 47 0 13 -76 113 -133 173 l-49 52 44 11 c79 21 176 80 232
141 55 59 87 125 101 207 6 40 5 42 -18 42 -39 0 -138 -38 -193 -75 -83 -55
-152 -153 -184 -261 l-13 -42 -50 39 c-28 21 -86 58 -129 82 l-78 44 71 28
c151 61 333 204 440 344 50 66 153 262 165 313 5 25 2 27 -50 42 -30 9 -61 19
-69 22 -9 3 -22 -16 -40 -63 -106 -271 -329 -473 -614 -559 -77 -23 -111 -27
-263 -31 l-175 -5 40 30 c111 82 170 193 182 343 4 54 2 78 -6 83 -19 12 -117
-41 -166 -91 -76 -75 -114 -168 -124 -297 l-6 -79 -60 -13 c-191 -39 -373
-136 -523 -278 -86 -82 -87 -76 -15 73 56 116 86 148 333 364 235 205 447 416
555 553 l79 101 59 -28 c74 -35 148 -44 229 -30 72 12 185 65 242 112 l38 32
-35 19 c-136 69 -320 61 -449 -21 l-48 -31 23 38 c174 276 262 537 283 840 l7
102 -75 0 -75 0 -7 -102 c-20 -316 -138 -612 -356 -898 -64 -83 -220 -263
-225 -258 -2 2 6 39 17 83 16 63 21 115 22 247 l1 166 32 17 c39 21 126 108
153 153 39 64 60 147 60 237 0 102 -6 105 -96 47 -95 -62 -147 -144 -179 -287
-7 -29 -8 -28 -31 33 -76 201 -69 489 16 688 11 26 19 48 18 49 -2 2 -31 17
-66 34 l-63 32 -25 -57z"/>
<path d="M4465 5195 c-67 -66 7 -230 113 -251 69 -14 112 25 112 101 0 123
-152 224 -225 150z"/>
<path d="M1784 4551 c-112 -51 -150 -215 -59 -258 31 -15 37 -15 79 1 117 45
166 215 76 261 -37 19 -46 19 -96 -4z"/>
<path d="M5154 4520 c-113 -45 -26 -270 106 -274 35 -1 46 4 67 28 54 63 9
192 -81 236 -46 22 -60 23 -92 10z"/>
<path d="M3536 4170 c-46 -55 -44 -136 5 -217 38 -61 118 -90 171 -62 26 14
48 68 48 117 0 53 -44 137 -88 167 -53 36 -103 34 -136 -5z"/>
<path d="M4945 3761 c-66 -41 -105 -108 -105 -181 0 -144 155 -155 234 -17 33
59 40 107 21 155 -25 61 -90 80 -150 43z"/>
<path d="M1907 3750 c-63 -49 -56 -154 15 -234 118 -135 262 -32 187 134 -25
56 -44 77 -91 101 -48 24 -79 24 -111 -1z"/>
<path d="M4449 2877 c-56 -38 -92 -99 -97 -165 -4 -52 -1 -61 23 -90 85 -101
267 47 239 195 -15 79 -94 108 -165 60z"/>
<path d="M2329 2861 c-24 -25 -29 -37 -29 -80 0 -127 113 -235 205 -196 42 17
59 48 58 106 -1 69 -43 141 -103 178 -50 30 -95 28 -131 -8z"/>
</g>
</svg>
